<svg id="Layer_1" data-name="Layer 1" xmlns="http://www.w3.org/2000/svg" viewBox="0 0 288 288"><defs><style>.cls-1{fill:#ca75db;}.cls-2{fill:#ee1d75;}.cls-3{fill:#9758ad;}.cls-4{fill:#e9d8f0;}.cls-5{fill:#f32183;}</style></defs><path class="cls-1" d="M162.47,68.3a.53.53,0,0,1,.49.59c0,.45,0,.9,0,1.35-.07,2.56-.08,5.12,0,7.68h0c-.41,0-.82,0-1.23,0H127.16l-2,0h0c0-2.13,0-4.26,0-6.39,0-.43.14-.9-.21-1.29a1.8,1.8,0,0,0,.22-1.18c0-.34,0-.66.44-.77l14.67,0Z"/><path class="cls-1" d="M70.26,162.92l-1.33,0c-.33,0-.54-.13-.56-.48V125.59c0-.43.32-.47.66-.49s.88.14,1.23-.24c.37.36.84.24,1.28.24h6.24v37.78h0Z"/><path class="cls-1" d="M217.81,125.09c.41,0,.81,0,1.22,0a.75.75,0,0,1,.76.48c-.28.31-.19.7-.19,1.06v35.78c0,.36-.24.47-.56.47l-1.21,0h-7.67V125.11h7.65Z"/><path class="cls-1" d="M163,217.79c0,.44,0,.89,0,1.33a.52.52,0,0,1-.47.59c-.41,0-.82,0-1.23,0H128.2c-.87,0-1.73,0-2.59.05a.58.58,0,0,1-.44-.63c0-.44,0-.88,0-1.32q0-3.71,0-7.41c.33,0,.66-.05,1-.05h35.66c.37,0,.73.05,1.1.07Z"/><path class="cls-1" d="M210.19,180.93c0,2.91,0,5.82,0,8.73,0,1.6,0,1.6-1.54,1.65l-1.59,0H191.43l-.06-6.28c0-.78,0-1.57,0-2.35,0-.51.2-.76.73-.74h7.64c1,0,1,0,1-1v-.5c0-5.26,0-10.52,0-15.78,0-1.82-.18-1.68,1.62-1.68,2.59,0,5.18,0,7.77,0h0Q210.19,171.91,210.19,180.93Z"/><path class="cls-2" d="M191.43,191.27H207l1.59,0c0,2.38,0,4.76,0,7.15,0,.87,0,.9-.89.9h-7.27c-1.07,0-1.08,0-1.08,1.1,0,2.38,0,4.76,0,7.14,0,.95,0,1-.93,1H181.79l0-7.86a.45.45,0,0,0,.2,0h8.12c1.18,0,1.19,0,1.19-1.23v-8.12Z"/><path class="cls-2" d="M162.47,68.3l-22.19,0-14.67,0c0-2.18,0-4.35,0-6.53,0-.57.16-.86.77-.79.2,0,.41,0,.62,0h34c1.72,0,1.49-.13,1.49,1.54C162.48,64.44,162.47,66.37,162.47,68.3Z"/><path class="cls-2" d="M125.61,219.72c.86,0,1.72-.05,2.59-.05h33.06c.41,0,.82,0,1.23,0,0,2.14,0,4.27,0,6.41,0,.88,0,.89-.88.92H127c-1.46,0-1.39.18-1.38-1.4C125.58,223.67,125.6,221.69,125.61,219.72Z"/><path class="cls-2" d="M68.37,125.59v36.83c-2.18,0-4.36,0-6.54,0-.64,0-.9-.21-.83-.85,0-.33,0-.66,0-1V126.79c0-1.25-.12-1.21,1.2-1.21Z"/><path class="cls-2" d="M219.6,162.43V126.65c0-.36-.09-.75.19-1.06h6.05c1.27,0,1.17-.08,1.17,1.23v33.84c0,.29,0,.58,0,.86,0,.89,0,.91-.87.91C224,162.44,221.78,162.43,219.6,162.43Z"/><path class="cls-1" d="M88.68,200.72c-1.31-.08-1.29.23-1.32-1.37q0-7.6,0-15.2l-.08-.28c-.12-.64,0-1.31-.13-2h0a30.19,30.19,0,0,0,3.55-.21c1.6,0,3.21,0,4.81,0,1.23,0,1.24,0,1.24,1.21,0,2.42,0,4.85,0,7.28,0,1.12,0,1.13,1.17,1.13h6.91c1.32,0,1.32,0,1.32,1.38q0,4,0,8h0Z"/><path class="cls-1" d="M87.15,88.66a.69.69,0,0,0,.13-.2c.27-1.12.27-1.12,1.4-1.16l17.5,0h0c0,2.76,0,5.51,0,8.27,0,1.09,0,1.11-1.08,1.11-2.43,0-4.86,0-7.29,0-1,0-1,0-1,1,0,2.38,0,4.77,0,7.15,0,1.38,0,1.43-1.36,1.4-2.66-.07-5.33-.29-8-.19h0c0-.45,0-.9,0-1.35V90.09A2.22,2.22,0,0,0,87.15,88.66Z"/><path class="cls-1" d="M199.34,87.3c.16,0,.32,0,.48,0,.6-.06,1,.08,1,.82a.62.62,0,0,0,.24.53c-.35.38-.24.85-.24,1.29l0,16.11c-2.76,0-5.51,0-8.26,0-1.09,0-1.1,0-1.11-1.1,0-2.42,0-4.85,0-7.27,0-1,0-1-1-1-2.5,0-5,0-7.52,0-1,0-1.13,0-1-1,.27-2.7.15-5.41.22-8.11a1.9,1.9,0,0,1,0-.25Z"/><path class="cls-1" d="M77.77,107.1c0-.67.27-1,1-1a5.53,5.53,0,0,0,.71,0h7.93c0,.49,0,1,0,1.47q0,8.15,0,16.29c0,1.23,0,1.23-1.2,1.24H77.78Q77.78,116.11,77.77,107.1Z"/><path class="cls-1" d="M106.17,79.43a3.49,3.49,0,0,0,0-.72c-.13-.75.27-1,.93-1,.43.38.95.22,1.42.23l16.65,0h0q0,3.82,0,7.65c0,1.93.21,1.72-1.7,1.73H106.18Z"/><path class="cls-1" d="M79.48,181.92a3.42,3.42,0,0,0-.71,0c-.74.08-1-.31-1-1,0-4.64,0-9.29,0-13.93a36.82,36.82,0,0,0,0-4.07h0l2.45,0c2,0,4,0,6,0,.86,0,.88,0,.92.92v.37q0,8.87,0,17.72h0C84.6,181.81,82,181.83,79.48,181.92Z"/><path class="cls-1" d="M180.93,77.68c1,.23.89,1,.86,1.75q0,3.81,0,7.61c-.32.39-.76.25-1.15.25l-16.48,0c-1.17,0-1.18,0-1.18-1.26,0-2.71,0-5.41,0-8.12h0l16.5,0A2.39,2.39,0,0,0,180.93,77.68Z"/><path class="cls-1" d="M181.82,200.73l0,7.86c0,.28,0,.56,0,.83,0,.62-.33.73-.83.7H163c0-2.83,0-5.65,0-8.48,0-.91,0-.94,1-.94Z"/><path class="cls-1" d="M107.15,210.12c-.61.06-1-.07-1-.83a4.36,4.36,0,0,0,0-.72V200.7h17.62c1.16,0,1.18,0,1.18,1.15,0,2.75,0,5.5,0,8.26Z"/><path class="cls-2" d="M106.17,79.43v7.89l-17.5,0c0-2.26,0-4.53,0-6.79,0-1.07,0-1.08,1.07-1.08Z"/><path class="cls-2" d="M106.17,200.7v7.87H89.76c-1.07,0-1.08,0-1.08-1.07,0-2.27,0-4.53,0-6.79Z"/><path class="cls-2" d="M181.78,87q0-3.8,0-7.61h16.37c1.17,0,1.18,0,1.18,1.22V87.3l-17.31,0C182,87.23,181.86,87.14,181.78,87Z"/><path class="cls-2" d="M87.4,106.09H79.48V89.81c0-.13,0-.25,0-.37-.06-.57.14-.83.76-.81.86,0,1.72,0,2.59,0l4.32,0a2.22,2.22,0,0,1,.21,1.43v14.65C87.36,105.19,87.39,105.64,87.4,106.09Z"/><path class="cls-2" d="M208.61,105.88l-.52.3-1.34-.06-6-.06,0-16.11c0-.44-.11-.91.24-1.29l6.53,0c1.06,0,1.07,0,1.07,1.09C208.62,95.11,208.61,100.5,208.61,105.88Z"/><path class="cls-2" d="M125.19,77.92l-16.65,0c-.47,0-1,.15-1.42-.23,0-2.13,0-4.27,0-6.41,0-1,0-1,1-1H125c.35.39.21.86.21,1.29C125.18,73.66,125.18,75.79,125.19,77.92Z"/><path class="cls-2" d="M163,210.11h18c0,2.18,0,4.36,0,6.53,0,1.11,0,1.11-1.18,1.12l-16.76,0c0-2.47-.05-4.94-.07-7.41A2.76,2.76,0,0,0,163,210.11Z"/><path class="cls-2" d="M210.17,125.1q0-9,0-18h6.52c1.1,0,1.11,0,1.11,1.16v16.83Z"/><path class="cls-2" d="M210.19,180.93q0-9,0-18h7.66q0,8.46,0,16.91c0,1.07,0,1.07-1.08,1.08Z"/><path class="cls-2" d="M79.48,181.92c2.56-.09,5.12-.11,7.68,0,.18.64,0,1.31.13,2a.21.21,0,0,0,.08.28q0,7.59,0,15.2H80.71c-1.22,0-1.23,0-1.23-1.18Z"/><path class="cls-2" d="M180.93,77.68a2.39,2.39,0,0,1-1.44.21l-16.5,0c-.08-2.56-.07-5.12,0-7.68h16.84c1.1,0,1.11,0,1.11,1.05,0,2.09,0,4.18,0,6.27Z"/><path class="cls-2" d="M107.15,210.12l17.78,0,.25.26q0,3.7,0,7.41h-17c-1,0-1,0-1-1C107.14,214.55,107.15,212.34,107.15,210.12Z"/><path class="cls-2" d="M77.77,162.9a36.82,36.82,0,0,1,0,4.07c0,4.64,0,9.29,0,13.93H71.35c-1.07,0-1.08,0-1.08-1.08q0-7.16,0-14.32v-2.59Z"/><path class="cls-2" d="M77.77,107.1q0,9,0,18H71.54c-.44,0-.91.12-1.28-.24V108.27c0-1.16,0-1.17,1.12-1.17Z"/><path class="cls-1" d="M182,200.69c0-2.84,0-5.68-.05-8.51,0-.62.19-.9.85-.89,2.84,0,5.67,0,8.51.05v8.12c0,1.22,0,1.23-1.19,1.23Z"/><path class="cls-3" d="M87.37,184.15a.21.21,0,0,1-.08-.28C87.32,184,87.34,184.05,87.37,184.15Z"/><path class="cls-4" d="M160,82.62c.56,0,1.13,0,1.7,0s.79.23.79.8c0,1.42,0,2.84,0,4.26,0,.39-.13.82.24,1.14.33.93,1.29,1.36,1.76,2.17a2,2,0,0,0,1.94,1c3.84,0,7.69,0,11.54,0a2.85,2.85,0,0,0,1.09-.1l.25,0C181,92,181,92,181,93.75c0,1.16,0,2.31,0,3.46a1.45,1.45,0,0,0,.38,1.12c.64.69,1.27,1.4,1.87,2.13a1.77,1.77,0,0,0,1.51.66c1.39,0,2.79,0,4.19,0,1.21,0,1.22,0,1.23,1.28s0,2.63,0,4a1.47,1.47,0,0,0,.36,1.13c.59.63,1.17,1.27,1.71,2a2.63,2.63,0,0,0,2.27,1c1.11,0,2.22,0,3.33,0,1.49,0,1.5,0,1.5,1.46,0,4.07,0,8.15,0,12.22a3,3,0,0,0,.85,2.33c.57.58,1.09,1.23,1.61,1.86a1.39,1.39,0,0,0,1.21.46q2.1,0,4.2,0c1.3,0,1.29,0,1.33,1.26.27,8.11.07,16.21.12,24.32,0,2.34-.08,4.68-.13,7,0,1,0,1-1.07,1-2.27,0-4.53,0-6.79,0-1.3,0-1.3,0-1.31,1.26q0,7.73,0,15.44c0,.28,0,.57,0,.86,0,.88,0,.9-.9.91h-7c-1.2,0-1.21,0-1.21,1.22,0,2.31,0,4.61,0,6.92,0,1,0,1-1,1l-7,0c-1.08,0-1,0-1.11,1.11-.13,2.3-.1,4.6-.12,6.9,0,1.14,0,1.15-1.2,1.16-2.26,0-4.53,0-6.79,0-3.12,0-6.25.07-9.37.12-1,0-1,0-1,1,0,2.39,0,4.78,0,7.16,0,1,0,1-1,1h-32c-1.09,0-1.09,0-1.11-1.09q0-2,0-4.08a1.64,1.64,0,0,0-.41-1.24,26.43,26.43,0,0,1-1.75-2.06,1.79,1.79,0,0,0-1.59-.71c-4.16,0-8.32,0-12.47,0h-.87c-1.35,0-1.36,0-1.37-1.37s0-2.55,0-3.83a1.76,1.76,0,0,0-.44-1.23c-.65-.75-1.26-1.52-1.85-2.31a1.42,1.42,0,0,0-1.28-.56c-1.44,0-2.88,0-4.32,0-1.24,0-1.24,0-1.26-1.21s0-2.47,0-3.7a2.24,2.24,0,0,0-.54-1.58c-.61-.73-1.24-1.43-1.81-2.18a1.34,1.34,0,0,0-1.17-.52c-1.53,0-3,0-4.57,0-1.19,0-1.19,0-1.21-1.24l0-2.47a.61.61,0,0,0,.22-.54c0-3.36,0-6.71,0-10.07a1.08,1.08,0,0,0-.14-.71,15.91,15.91,0,0,0-2.53-3c-.08-.1-.16-.19-.23-.29a.7.7,0,0,0-.66-.23l-5.54,0h0c-.1-2.79-.12-5.58-.17-8.37-.13-8-.17-16,.15-24,0-1,0-1,1-1,2.38,0,4.74-.38,7.13-.24a4,4,0,0,0,.49,0,.49.49,0,0,0,.53-.54c0-.25,0-.5,0-.74q0-7.77,0-15.54a2.37,2.37,0,0,0-.14-1.21c.22-.3.58-.3.88-.4a69.11,69.11,0,0,0,7.75.11c.53,0,.65-.4.65-.85,0-1.24,0-2.47,0-3.7a11.1,11.1,0,0,0-.11-2.82c0-.6.07-1.21.11-1.81.29.08.57.14.74-.2a7.79,7.79,0,0,0,1.74,0c2,.2,4,0,6,.08.46,0,.67-.21.66-.67,0-1.76.12-3.52-.08-5.27a11,11,0,0,0,0-2.22c.42-.26.27-.63.2-1l2.55-.12a2.24,2.24,0,0,0,1.09.13l13.55,0h.61a.48.48,0,0,0,.55-.52,52.63,52.63,0,0,0-.1-5.89c0-.57.06-1.13.08-1.7,0-.4-.05-.82.28-1.14a2.27,2.27,0,0,0,1.09.13H159C159.31,82.83,159.71,83,160,82.62Zm-25.11,34a4,4,0,0,0-.53-1.26c-.08-.59-.54-.39-.87-.39H116c-.94,0-1,0-1,1,0,2.51,0,5,0,7.52,0,1.15,0,1.15-1.14,1.16h-7.52c-1.12,0-1.12,0-1.13,1.17v26.39c0,.25,0,.5,0,.74,0,.6.25.79.81.79a6,6,0,0,1,1.84.11A4.75,4.75,0,0,0,109,155.4c1,1.06,2,2.17,2.86,3.32a2.52,2.52,0,0,0,1.7,1.07A13.81,13.81,0,0,1,115,160c0,.89.07,1.78.05,2.67,0,.59.21.78.78.76s1.13,0,1.7.07a2.51,2.51,0,0,0,.6,1.05c1.13,1.29,2.25,2.58,3.38,3.86a1.77,1.77,0,0,0,1.4.66,6.55,6.55,0,0,0,1.71-.08c0,.7,0,1.4,0,2.09s-.21,1.36.16,1.79,1.24.1,1.88.21l.24,0a2.14,2.14,0,0,0,.21.43c1.13,1.3,2.27,2.59,3.38,3.9a1.93,1.93,0,0,0,1.71.78c.69-.05,1.39,0,2.09,0,0,1.1,0,2.19,0,3.28s0,1.2,1.17,1.25c.36,0,.72.07,1.08.11,1,1.45,2.24,2.61,3.31,3.95a2.14,2.14,0,0,0,1.87.75c2.06,0,4.11,0,6.17,0s4.33,0,6.49-.06c1.09,0,2.2-.16,3.31-.18s1,0,1-1.07c0-2.14,0-4.28,0-6.41,0-1.44.22-1.64,1.65-1.65H167c.9,0,.93,0,.94-.88s0-1.8.11-2.66c.11-1.39.08-2.78.12-4.17s.1-1.42,1.39-1.43h6.42c1.28,0,1.33-.06,1.34-1.31,0-2.22,0-4.44,0-6.66,0-1,.16-1.18,1.15-1.16,2.3.07,4.59-.15,6.88-.23,1.09,0,1.1,0,1.11-1.11q0-12.76,0-25.54a2,2,0,0,0-.46-1.35c-1-1.22-2-2.46-3.13-3.62,0-.89-.07-1.79-.05-2.68,0-.59-.2-.77-.78-.77-1.58,0-3.17,0-4.75,0a3,3,0,0,0-.89-2.53c-.64-.62-1.09-1.43-1.71-2.06s-.79-1.26-1.49-1.58a14,14,0,0,1-.07-2.59c0-.61-.15-.94-.82-.86a4.17,4.17,0,0,1-.5,0H154.9c-.29,0-.57,0-.86,0s-.41.21-.42.49a2.7,2.7,0,0,0-.34,1.65q0,3.72,0,7.46H140.43a2.81,2.81,0,0,0-1-2.62,5.33,5.33,0,0,1-.46-.58C137.58,119.83,136.38,118.1,134.89,116.63Z"/><path class="cls-5" d="M117.49,163.47c-.57,0-1.13-.09-1.7-.07s-.8-.17-.78-.76c0-.89,0-1.78-.05-2.67a6.54,6.54,0,0,0-.13-2.75c0-.9,0-1.79,0-2.69,0-.58-.25-.78-.81-.77-1.3,0-2.6,0-3.9,0a11.47,11.47,0,0,0-2.27,0,6,6,0,0,0-1.84-.11c-.56,0-.86-.19-.81-.79,0-.24,0-.49,0-.74V125.78c0-1.15,0-1.16,1.13-1.17h7.52c1.13,0,1.13,0,1.14-1.16,0-2.51,0-5,0-7.52,0-.94,0-1,1-1h17.51c.33,0,.79-.2.87.39,0,1.47,0,2.94,0,4.4s0,2.69,0,4c0,.37,0,.77.5.8h18.43c.72,0,.58-.54.58-1q0-3.62,0-7.23c0-.31.07-.66-.22-.91,0-.28.11-.48.42-.49s.57,0,.86,0h16.88a4.17,4.17,0,0,0,.5,0c.67-.08.83.25.82.86a14,14,0,0,0,.07,2.59c0,1.8,0,3.61-.06,5.42,0,.6.24.8.82.79,1.11,0,2.22,0,3.33,0,1.58,0,3.17,0,4.75,0,.58,0,.79.18.78.77,0,.89,0,1.79.05,2.68,0,.53-.08,1.06-.08,1.59v22.44c0,.33,0,.66,0,1s-.21.65-.67.65l-2.09.05c-2,0-3.94,0-5.91,0-.93,0-1,0-1,1,0,1.88,0,3.77,0,5.65,0,.78,0,1.55,0,2.33,0,.46-.19.66-.66.66-.85,0-1.71,0-2.57,0-1.8,0-3.61,0-5.42,0-.95,0-1,0-1,1,0,2,0,3.94,0,5.92,0,.65,0,1.31,0,2s-.23.79-.8.79c-1.07,0-2.14,0-3.21,0l-4.92,0c-.62,0-.9.26-.89.88,0,1.19,0,2.38,0,3.57,0,.48-.14,1,.16,1.44l0,1.73a.19.19,0,0,0-.08.18l-.06,1.1c0,.84-.06.85-.95.89-.24,0-.49,0-.73,0H136.6c-.36,0-.72-.1-1.08-.11-1.15-.05-1.15,0-1.17-1.25s0-2.18,0-3.28v-.3c0-1.35,0-2.71,0-4.06,0-.58-.21-.81-.79-.8-2,0-4,0-6,0h-.59l-.24,0c-.64-.11-1.44.28-1.88-.21s-.11-1.18-.16-1.79,0-1.39,0-2.08a3.29,3.29,0,0,0,0-1.36c0-1.1.05-2.19.05-3.29,0-.88,0-.9-.89-.91-1.09,0-2.19,0-3.28,0A19,19,0,0,0,117.49,163.47Z"/><path class="cls-3" d="M140.43,124.59h-5.6c0-2.65-.08-5.31.06-8,1.49,1.47,2.69,3.2,4.06,4.76a5.33,5.33,0,0,0,.46.58A2.81,2.81,0,0,1,140.43,124.59Z"/><path class="cls-3" d="M177.26,124.59c-1.11,0-2.22,0-3.33,0-.58,0-.83-.19-.82-.79,0-1.81,0-3.62.06-5.42.7.32,1,1.06,1.49,1.58s1.07,1.44,1.71,2.06A3,3,0,0,1,177.26,124.59Z"/><path class="cls-2" d="M153.62,115.48c.29.25.22.6.22.91q0,3.61,0,7.23c0,.43.14,1-.58,1q0-3.74,0-7.46A2.7,2.7,0,0,1,153.62,115.48Z"/><path class="cls-2" d="M134.89,116.63c-.14,2.66,0,5.32-.06,8-.54,0-.5-.43-.5-.8,0-1.34,0-2.68,0-4s0-2.93,0-4.4A4,4,0,0,1,134.89,116.63Z"/><path class="cls-3" d="M210.16,143.51v-18.4c-2.8,0-5.6,0-8.39,0-1,0-1,0-1-.94,0-.17,0-.33,0-.5V108c0-.29,0-.57,0-.86,0-.58.23-.8.81-.8,1.77,0,3.54,0,5.3,0a2.09,2.09,0,0,0,1.21-.12l-1.34-.06-6-.06c-2.76,0-5.51,0-8.26,0-1.09,0-1.1,0-1.11-1.1,0-2.42,0-4.85,0-7.27,0-1,0-1-1-1-2.5,0-5,0-7.52,0-1,0-1.13,0-1-1,.27-2.7.15-5.41.22-8.11a1.9,1.9,0,0,1,0-.25c-.08-.09-.17-.18-.25-.28-.32.39-.76.25-1.15.25l-16.48,0c-1.17,0-1.18,0-1.18-1.26,0-2.71,0-5.41,0-8.12-.41,0-.82,0-1.23,0H127.16l-2,0q0,3.82,0,7.65c0,1.93.21,1.72-1.7,1.73H106.18c0,2.76,0,5.51,0,8.27,0,1.09,0,1.11-1.08,1.11-2.43,0-4.86,0-7.29,0-1,0-1,0-1,1,0,2.38,0,4.77,0,7.15,0,1.38,0,1.43-1.36,1.4-2.66-.07-5.33-.29-8-.19,0,.49,0,1,0,1.47q0,8.15,0,16.29c0,1.23,0,1.23-1.2,1.24H77.78v37.78l2.45,0c2,0,4,0,6,0,.86,0,.88,0,.92.92v.37q0,8.87,0,17.72a30.19,30.19,0,0,0,3.55-.21c1.6,0,3.21,0,4.81,0,1.23,0,1.24,0,1.24,1.21,0,2.42,0,4.85,0,7.28,0,1.12,0,1.13,1.17,1.13h6.91c1.32,0,1.32,0,1.32,1.38q0,4,0,8h17.61c1.16,0,1.18,0,1.18,1.15,0,2.75,0,5.5,0,8.26l.25.26c.33,0,.66-.05,1-.05h35.66c.37,0,.73.05,1.1.07a2.76,2.76,0,0,0,.08-.27c0-2.83,0-5.65,0-8.48,0-.91,0-.94,1-.94l17.83,0a.45.45,0,0,0,.2,0c0-2.84,0-5.68-.05-8.51,0-.62.19-.9.85-.89,2.84,0,5.67,0,8.51.05l.1-.07-.06-6.28c0-.78,0-1.57,0-2.35,0-.51.2-.76.73-.74h7.64c1,0,1,0,1-1v-.5c0-5.26,0-10.52,0-15.78,0-1.82-.18-1.68,1.62-1.68,2.59,0,5.18,0,7.77,0Zm-1.53,10.88c0,2.34-.08,4.68-.13,7,0,1,0,1-1.07,1-2.27,0-4.53,0-6.79,0-1.3,0-1.3,0-1.31,1.26q0,7.73,0,15.44c0,.28,0,.57,0,.86,0,.88,0,.9-.9.91h-7c-1.2,0-1.21,0-1.21,1.22,0,2.31,0,4.61,0,6.92,0,1,0,1-1,1l-7,0c-1.08,0-1,0-1.11,1.11-.13,2.3-.1,4.6-.12,6.9,0,1.14,0,1.15-1.2,1.16-2.26,0-4.53,0-6.79,0-3.12,0-6.25.07-9.37.12-1,0-1,0-1,1,0,2.39,0,4.78,0,7.16,0,1,0,1-1,1h-32c-1.09,0-1.09,0-1.11-1.09q0-2,0-4.08a1.64,1.64,0,0,0-.41-1.24,26.43,26.43,0,0,1-1.75-2.06,1.79,1.79,0,0,0-1.59-.71c-4.16,0-8.32,0-12.47,0h-.87c-1.35,0-1.36,0-1.37-1.37s0-2.55,0-3.83a1.74,1.74,0,0,0-.44-1.23c-.65-.75-1.26-1.52-1.85-2.31a1.42,1.42,0,0,0-1.28-.56c-1.44,0-2.88,0-4.32,0-1.24,0-1.24,0-1.26-1.21s0-2.47,0-3.7a2.24,2.24,0,0,0-.54-1.58c-.61-.73-1.24-1.43-1.81-2.18a1.34,1.34,0,0,0-1.17-.52c-1.53,0-3,0-4.57,0-1.19,0-1.19,0-1.21-1.24l0-2.47h0a.61.61,0,0,0,.22-.54c0-3.36,0-6.71,0-10.07a1.08,1.08,0,0,0-.14-.71,15.91,15.91,0,0,0-2.53-3l-.23-.29h0a.7.7,0,0,0-.66-.23l-5.54,0h0a.48.48,0,0,1-.44-.5.48.48,0,0,0,.44.5c-.1-2.79-.12-5.58-.17-8.37-.13-8-.17-16,.15-24,0-1,0-1,1-1,2.38,0,4.74-.38,7.13-.24a4,4,0,0,0,.49,0,.49.49,0,0,0,.53-.54c0-.25,0-.5,0-.74q0-7.77,0-15.54a2.37,2.37,0,0,0-.14-1.21c.22-.3.58-.3.88-.4.09-.08.18-.24.26-.24-.08,0-.17.16-.26.24a69.11,69.11,0,0,0,7.75.11c.53,0,.65-.4.65-.85,0-1.24,0-2.47,0-3.7a11.1,11.1,0,0,0-.11-2.82c0-.6.07-1.21.11-1.81.11-.31.28-.43.5-.35-.22-.08-.39,0-.5.35.29.08.57.14.74-.2a7.79,7.79,0,0,0,1.74,0,1.57,1.57,0,0,1,.63-.88,1.57,1.57,0,0,0-.63.88c2,.2,4,0,6,.08.46,0,.67-.21.66-.67,0-1.76.12-3.52-.08-5.27a11.76,11.76,0,0,0,0-2.22.81.81,0,0,1-.19-.54.81.81,0,0,0,.19.54c.42-.26.27-.63.2-1l2.55-.12c0-.44.31-.63.67-.78-.36.15-.66.34-.67.78a2.24,2.24,0,0,0,1.09.13l13.55,0h.61a.48.48,0,0,0,.55-.52,52.63,52.63,0,0,0-.1-5.89c0-.57.06-1.13.08-1.7,0-.4-.05-.82.28-1.14,0-.07.1-.18.15-.19s-.1.12-.15.19a2.27,2.27,0,0,0,1.09.13H159c.35,0,.75.13,1-.21.56,0,1.13,0,1.7,0s.79.23.79.8c0,1.42,0,2.84,0,4.26,0,.39-.13.82.24,1.14h0c.33.93,1.29,1.36,1.76,2.17a2,2,0,0,0,1.94,1c3.84,0,7.69,0,11.54,0a2.85,2.85,0,0,0,1.09-.1l.25,0C181,92,181,92,181,93.75c0,1.16,0,2.31,0,3.46a1.45,1.45,0,0,0,.38,1.12c.64.69,1.27,1.4,1.87,2.13a1.77,1.77,0,0,0,1.51.66c1.39,0,2.79,0,4.19,0,1.21,0,1.22,0,1.23,1.28s0,2.63,0,4a1.47,1.47,0,0,0,.36,1.13c.59.63,1.17,1.27,1.71,2a2.63,2.63,0,0,0,2.27,1c1.11,0,2.22,0,3.33,0,1.49,0,1.5,0,1.5,1.46,0,4.07,0,8.15,0,12.22a3,3,0,0,0,.85,2.33c.57.58,1.09,1.23,1.61,1.86a1.39,1.39,0,0,0,1.21.46q2.1,0,4.2,0c1.3,0,1.29,0,1.33,1.26C208.78,138.18,208.58,146.28,208.63,154.39Z"/><path class="cls-3" d="M182.84,128.05c0,.53-.08,1.06-.08,1.59v22.44c0,.33,0,.66,0,1s-.21.65-.67.65l-2.09.05c-2,0-3.94,0-5.91,0-.93,0-1,0-1,1,0,1.88,0,3.77,0,5.65,0,.78,0,1.55,0,2.33,0,.46-.19.66-.66.66-.85,0-1.71,0-2.57,0h0c-1.8,0-3.61,0-5.42,0-.95,0-1,0-1,1,0,2,0,3.94,0,5.92a.87.87,0,0,0,.54-.17.87.87,0,0,1-.54.17c0,.65,0,1.31,0,2s-.23.79-.8.79c-1.07,0-2.14,0-3.21,0l-4.92,0c-.62,0-.9.26-.89.88,0,1.19,0,2.38,0,3.57,0,.48-.14,1,.16,1.44,0,.58,0,1.16,0,1.73a.15.15,0,0,1-.08.18l-.06,1.1c0,.84-.06.85-.95.89-.24,0-.49,0-.73,0H136.6c1,1.45,2.24,2.61,3.31,3.95a2.14,2.14,0,0,0,1.87.75c2.06,0,4.11,0,6.17,0s4.33,0,6.49-.06c1.09,0,2.2-.16,3.31-.18s1,0,1-1.07c0-2.14,0-4.28,0-6.41,0-1.44.22-1.64,1.65-1.65H167c.9,0,.92,0,.94-.88s0-1.8.11-2.66c.11-1.39.08-2.78.12-4.17s.1-1.42,1.39-1.43h6.42c1.28,0,1.33-.06,1.34-1.31,0-2.22,0-4.44,0-6.66,0-1,.16-1.19,1.15-1.16,2.3.07,4.59-.15,6.88-.23,1.09,0,1.1,0,1.11-1.11q0-12.76,0-25.54a2,2,0,0,0-.46-1.35C185,130.45,183.94,129.21,182.84,128.05Zm-13.29,36.29a1.1,1.1,0,0,0,.33-.64A1.1,1.1,0,0,1,169.55,164.34Z"/><path class="cls-3" d="M133.54,173.06c-2,0-4,0-6,0h-.59a2.14,2.14,0,0,0,.21.43c1.13,1.3,2.27,2.59,3.38,3.9a1.93,1.93,0,0,0,1.71.78c.69-.05,1.39,0,2.09,0v-.3c0-1.35,0-2.71,0-4.06C134.34,173.28,134.12,173.05,133.54,173.06Z"/><path class="cls-3" d="M124.68,164.32c0-.88,0-.9-.89-.91-1.09,0-2.19,0-3.28,0a19,19,0,0,0-3,0,2.51,2.51,0,0,0,.6,1.05c1.13,1.29,2.25,2.58,3.38,3.86a1.77,1.77,0,0,0,1.4.66,7,7,0,0,0,1.71-.07,3.29,3.29,0,0,0,0-1.36C124.65,166.51,124.68,165.42,124.68,164.32Z"/><path class="cls-3" d="M114.85,154.53c0-.58-.25-.78-.81-.77-1.3,0-2.6,0-3.9,0a11.47,11.47,0,0,0-2.27,0A4.75,4.75,0,0,0,109,155.4c1,1.06,2,2.17,2.86,3.32a2.52,2.52,0,0,0,1.7,1.07A13.81,13.81,0,0,1,115,160a6.54,6.54,0,0,0-.13-2.75C114.84,156.32,114.82,155.43,114.85,154.53Z"/><path class="cls-3" d="M153.77,180.68a.15.15,0,0,1-.08.18A.19.19,0,0,1,153.77,180.68Z"/><path class="cls-1" d="M208.61,105.88a.77.77,0,0,0,.75.26c.76-.09.86.38.82,1q0,9,0,18h0c-2.8,0-5.6,0-8.39,0-1,0-1,0-1-.94,0-.17,0-.33,0-.5V108a9.53,9.53,0,0,0,0-1.07c0-.33.14-.82.47-.81,1.87,0,3.58,0,5.52,0,.4,0,.64,0,1.34.06Z"/></svg>