<svg id="Layer_1" data-name="Layer 1" xmlns="http://www.w3.org/2000/svg" viewBox="0 0 288 288"><defs><style>.cls-1{fill:#f7f38b;}.cls-2{fill:#f362d2;}.cls-3{fill:#00e6da;}.cls-4{fill:#01ae88;}.cls-5{fill:#f56fdd;}</style></defs><path class="cls-1" d="M210.23,180.93c-.17,2.38,0,4.76-.08,7.14,0,.7,0,1.4,0,2.1,0,.93,0,.92-.94,1-.2,0-.4.07-.6.1a2.89,2.89,0,0,0-.49-.07H192.33c-1,0-1,0-1,1,0,2.46,0,4.93,0,7.4,0,1.17,0,1.18-1.15,1.18-2.47,0-4.93,0-7.4,0-.54,0-1,0-1,.75,0,2.34.05,4.68.06,7a6.26,6.26,0,0,0-.11,1c0,.59-.37.64-.79.69l-7-.05c-3.36,0-6.72,0-10.08,0-.88,0-.91,0-.91.88,0,2.25,0,4.5,0,6.75,0,.37-.07.74-.06,1.1a.66.66,0,0,1-.5.74,4.22,4.22,0,0,0-.49,0H125.72a.54.54,0,0,1-.53-.55c0-.44,0-.89-.07-1.33a58.67,58.67,0,0,0-.09-6.63c-.09-.9-.06-.92-1-.92H107.19c-1-.12-1-.12-1-1l0-.71c0-2.18,0-4.36,0-6.54,0-1.11,0-1.13-1.05-1.13H88.72a2.07,2.07,0,0,0-.35,0c-.71.08-1.06-.18-1-.93a.66.66,0,0,0-.17-.55c0-2.63,0-5.25,0-7.88s-.1-5.41.09-8.11c.1-1.43,0-1.47-1.36-1.48h-6.4a4.66,4.66,0,0,0-.83,0c-.76.1-1-.28-.92-1q0-8.43,0-16.86c0-1,0-1-1-1-2.17,0-4.35,0-6.52,0l-1.11,0a.77.77,0,0,1-.85-.55c0-2.3,0-4.6,0-6.9q0-15,0-29.94a.74.74,0,0,1,.79-.55l1.17,0c2.14,0,4.27,0,6.4,0,1.06,0,1.08,0,1.08-1.1q0-8.35,0-16.73c.11-.92.11-.92.92-1l.83,0h6.54c1.11,0,1.12,0,1.12-1.2V88.72a1.15,1.15,0,0,0,.15-.32c.17-1.12.16-1.12,1.35-1.19h16.41c1,0,1,0,1-1.13,0-2.18,0-4.36,0-6.54l0-.71c0-.9,0-.9,1-1l17,0c.9,0,.93,0,.93-.89,0-2.22,0-4.44,0-6.66,0-.44.06-.89.07-1.34s.22-.49.53-.55h36.69A.59.59,0,0,1,163,69c0,.4,0,.81,0,1.21,0,2.22,0,4.44,0,6.66,0,.89,0,.92.89.92l17,0c.57,0,.92.16.86.82a1.32,1.32,0,0,0,.14.93c0,2.14,0,4.27,0,6.41,0,1.23,0,1.25,1.18,1.25h16.15l.36,0c1,.07,1,.07,1.11,1.12l0,.36c0,1.36,0,2.71,0,4.07q0,6.09,0,12.19c0,1.18,0,1.2,1.11,1.2,2.22,0,4.44,0,6.65,0a2.85,2.85,0,0,0,.71,0c.81-.12,1,.34.94,1q0,8.42,0,16.84c0,.94,0,1,1,1,2.21,0,4.42,0,6.63,0,.68.14,1.52-.3,2,.56,0,.33,0,.66,0,1v34.84c0,.37,0,.74,0,1.11-.49.75-1.29.37-2,.53-2.26,0-4.52,0-6.78,0-.85,0-.85,0-.88.93v15.79C210.16,180.12,210.21,180.53,210.23,180.93ZM88.73,162.65c0,.49-.07,1-.07,1.47q0,7.49,0,15c0,.41,0,.82,0,1.23s.11.73.61.7a7.29,7.29,0,0,0,2.42-.21l5.25.05c.4,0,.83-.12,1.13.28-.21,2.82-.05,5.64-.12,8.46,0,.5.27.63.71.61a10.17,10.17,0,0,0,2.2-.13l5.21,0c.4,0,.82-.11,1.17.17q0,4.19-.1,8.37c0,.5.15.77.7.75a10.8,10.8,0,0,0,2.2-.13c.45,0,.9,0,1.35,0h13a2.58,2.58,0,0,1,1.32.13c0,2.06,0,4.11-.07,6.16,0,.78,0,1.56,0,2.34,0,.52.22.76.74.73a5.37,5.37,0,0,0,2.18-.23,2,2,0,0,0,.24,0h32.82c.87,0,.89,0,.9-.92,0-2.38,0-4.77,0-7.15,0-1.1,0-1.1,1.05-1.12h16.29c1,0,1,0,1-1,0-2.26,0-4.53,0-6.79,0-1.59-.16-1.41,1.48-1.42h6.54c1.21,0,1.23,0,1.24-1.24,0-2.34,0-4.69,0-7,0-1,0-1,1-1h7.77a.42.42,0,0,0,.46-.45c0-.33,0-.66,0-1v-13.7c0-.86,0-1.73,0-2.59,0-.47.17-.68.64-.66.29,0,.58,0,.87,0h6.54c1.13,0,1.13,0,1.15-1.18V134.63c0-1.9,0-3.79,0-5.68a12.15,12.15,0,0,0,.14-2.56c0-.58-.23-.8-.8-.79l-8.33.09a6.38,6.38,0,0,1-.16-2.42q0-6.39-.05-12.78a15,15,0,0,0,.12-2.68c0-.45-.17-.68-.64-.67-2.82.06-5.63-.07-8.45.1-.31-.35-.18-.78-.18-1.17,0-1.59,0-3.18-.06-4.76a16.9,16.9,0,0,0,.14-2.56c0-.68-.29-.84-.88-.82-.9,0-1.8,0-2.69,0-1.84.05-3.67-.1-5.5.1-.41-.3-.28-.74-.29-1.13,0-1.6,0-3.2,0-4.8a10.19,10.19,0,0,0,.2-2.81c0-.46-.18-.69-.65-.67h-.62l-17.24,0-.09-5.86a4.89,4.89,0,0,0,.08-.85c0-.78.36-1.72-.13-2.28s-1.47-.11-2.23-.2H160l-33.18,0c-1.24,0-1.24,0-1.24,1.2,0,2.34,0,4.69,0,7,0,1,0,1-.93,1h-.74l-15.67,0c-1.14,0-1.15,0-1.15,1.16,0,2.38,0,4.77,0,7.15,0,1,0,1-1,1-2.39,0-4.77,0-7.16,0-1,0-1,0-1,1,0,2,0,4,0,5.92,0,.69.29,1.55-.13,2s-1.39.2-2.1.21c-2.06,0-4.12,0-6.17,0-.88,0-.88,0-.91.91,0,.24,0,.49,0,.74q0,7.83,0,15.66c0,1.16,0,1.17-1.12,1.17l-6.54,0c-1.67,0-1.54-.14-1.54,1.51q0,16.41,0,32.81c0,.84-.43,2,.22,2.46s1.74.16,2.63.06c1.74,0,3.48,0,5.22.05C88,162.5,88.37,162.38,88.73,162.65Z"/><path class="cls-2" d="M181.88,208.55c0-2.35,0-4.69-.06-7,0-.74.42-.75,1-.75,2.47,0,4.93,0,7.4,0,1.14,0,1.15,0,1.15-1.18,0-2.47,0-4.94,0-7.4,0-.94,0-1,1-1h15.79a2.89,2.89,0,0,1,.49.07c0,2.42,0,4.85,0,7.28,0,.62-.28.75-.83.75-2.46,0-4.93,0-7.4,0-1.07,0-1.08,0-1.08,1.1,0,2.34,0,4.69,0,7,0,1,0,1-1,1-4.4,0-8.8,0-13.2,0A12.63,12.63,0,0,1,181.88,208.55Z"/><path class="cls-2" d="M68.39,125.58q0,15,0,29.94c0,2.3,0,4.6,0,6.9-2.18,0-4.36,0-6.54.06-.56,0-.87-.16-.82-.77a6.06,6.06,0,0,0,0-.74V127c0-1.66-.13-1.51,1.55-1.5C64.52,125.53,66.46,125.56,68.39,125.58Z"/><path class="cls-2" d="M162.41,68.39H125.72c-.14-2.21,0-4.43-.06-6.65,0-.53.22-.74.73-.71.25,0,.5,0,.74,0H161c1.61,0,1.48-.13,1.47,1.44C162.45,64.45,162.55,66.42,162.41,68.39Z"/><path class="cls-2" d="M125.72,219.6H162a4.22,4.22,0,0,1,.49,0c0,2.18,0,4.35,0,6.53,0,.58-.2.84-.78.79-.25,0-.5,0-.74,0H127.15c-1.61,0-1.5.15-1.49-1.44C125.68,223.55,125.58,221.58,125.72,219.6Z"/><path class="cls-2" d="M219.77,162.49c0-.37,0-.74,0-1.11V126.54c0-.32,0-.65,0-1,2.13,0,4.27,0,6.4,0,.57,0,.85.19.81.78,0,.25,0,.5,0,.74v33.9c0,1.65.15,1.53-1.52,1.53Z"/><path class="cls-2" d="M208.54,106.17c-2.21,0-4.43,0-6.65,0-1.1,0-1.11,0-1.11-1.2q0-6.09,0-12.19c0-1.36,0-2.71,0-4.07l7,0c.54,0,.83.13.82.75q0,8.31-.05,16.61A.53.53,0,0,1,208.54,106.17Z"/><path class="cls-2" d="M125.12,70.28c0,2.22,0,4.44,0,6.66,0,.86,0,.89-.93.89l-17,0c0-2.25,0-4.51,0-6.76,0-.53.1-.85.74-.85q8.53,0,17.09,0A.53.53,0,0,1,125.12,70.28Z"/><path class="cls-2" d="M180.91,77.81l-17,0c-.86,0-.89,0-.89-.92,0-2.22,0-4.44,0-6.66l9.1,0c2.67,0,5.33,0,8,0,.62,0,.87.2.86.84C180.92,73.3,180.93,75.55,180.91,77.81Z"/><path class="cls-2" d="M163,217.8c0-2.25,0-4.5,0-6.75,0-.86,0-.88.91-.88,3.36,0,6.72,0,10.08,0l7,.05c0,2.18,0,4.36,0,6.54,0,1,0,1-1,1H163Z"/><path class="cls-2" d="M107.19,210.18H124c1,0,.92,0,1,.92a58.67,58.67,0,0,1,.09,6.63c-.37,0-.74.07-1.1.07h-15.5a4,4,0,0,0-.49,0c-.63.06-.87-.2-.86-.84,0-1.64,0-3.28,0-4.92C107.18,211.41,107.19,210.8,107.19,210.18Z"/><path class="cls-2" d="M210.23,180.93c0-.4-.07-.81-.07-1.22V163.92c0-.9,0-.93.88-.93,2.26,0,4.52,0,6.78,0l0,16.65c0,1.14,0,1.14-1.16,1.15C214.5,180.83,212.36,180.79,210.23,180.93Z"/><path class="cls-2" d="M217.76,125c-2.21,0-4.42,0-6.63,0-.94,0-1,0-1-1q0-8.43,0-16.84c2.21,0,4.42,0,6.64,0,.93,0,1,0,1,1Z"/><path class="cls-2" d="M79.57,181.82H86c1.38,0,1.46.05,1.36,1.48-.19,2.7-.07,5.41-.09,8.11s0,5.25,0,7.88c-2.3,0-4.6,0-6.9,0-.54,0-.82-.13-.82-.75C79.54,193,79.55,187.4,79.57,181.82Z"/><path class="cls-2" d="M106.18,79.55c0,2.18,0,4.36,0,6.54,0,1.11,0,1.13-1,1.13H88.73c0-2.26,0-4.51,0-6.76,0-.89,0-.93.88-.93C95.12,79.52,100.65,79.54,106.18,79.55Z"/><path class="cls-2" d="M87.23,88.72V105c0,1.18,0,1.2-1.12,1.2H79.57c0-1.64,0-3.28,0-4.92V89.81c0-1.1,0-1.11,1.06-1.12Z"/><path class="cls-2" d="M88.72,200.79h16.41c1,0,1.05,0,1.05,1.13,0,2.18,0,4.36,0,6.54l-16.6,0c-.85,0-.88,0-.88-.92C88.69,205.3,88.71,203,88.72,200.79Z"/><path class="cls-2" d="M199.28,87.22H183.13c-1.17,0-1.17,0-1.18-1.25,0-2.14,0-4.27,0-6.41,2.59,0,5.17,0,7.76,0h8.5c1.12,0,1.13,0,1.13,1.17Q199.3,83.95,199.28,87.22Z"/><path class="cls-2" d="M77.82,107.18q0,8.37,0,16.73c0,1.09,0,1.1-1.08,1.1-2.13,0-4.26,0-6.4,0,0-5.57,0-11.14,0-16.71,0-1.09,0-1.11,1.07-1.11C73.55,107.17,75.69,107.18,77.82,107.18Z"/><path class="cls-2" d="M70.35,163c2.17,0,4.35,0,6.52,0,.94,0,1,0,1,1q0,8.43,0,16.86c-2.13,0-4.27,0-6.4,0-1.06,0-1.07,0-1.07-1.11C70.34,174.14,70.35,168.56,70.35,163Z"/><path class="cls-3" d="M208.48,129c0,1.89,0,3.78,0,5.68v26.65c0,1.16,0,1.17-1.15,1.18h-6.54c-.29,0-.58,0-.87,0-.47,0-.65.19-.64.66,0,.86,0,1.73,0,2.59v13.7c0,.33,0,.66,0,1a.42.42,0,0,1-.46.45h-7.77c-.94,0-1,0-1,1,0,2.34,0,4.69,0,7,0,1.23,0,1.24-1.24,1.24h-6.54c-1.64,0-1.47-.17-1.48,1.42,0,2.26,0,4.53,0,6.79,0,1,0,1-1,1H163.52c-1,0-1.05,0-1.05,1.12,0,2.38,0,4.77,0,7.15,0,.89,0,.92-.9.92H128.74c-.08,0-.16,0-.25,0-.16-1.64,0-3.29-.08-4.93a1.67,1.67,0,0,0-.26-1.17c-.83-1-1.56-2-2.48-2.9a2.58,2.58,0,0,0-1.32-.13h-13c-.45,0-.9,0-1.35,0-.2-1.68-.06-3.37-.1-5.05a2,2,0,0,0-.39-1.37,33.08,33.08,0,0,0-2.31-2.57c-.35-.28-.77-.16-1.17-.17l-5.22,0c0-1.67,0-3.35-.07-5a1.63,1.63,0,0,0-.33-1.26c-.85-.84-1.46-1.88-2.38-2.65-.3-.4-.73-.27-1.13-.28l-5.25-.05c-.09-3.07-.19-6.14-.26-9.21,0-1.68,0-3.36,0-5,0-.33.1-.71-.12-1a18.9,18.9,0,0,0-2.54-3c-.36-.27-.78-.15-1.18-.16-1.74,0-3.48,0-5.22-.05,0-.49-.06-1-.06-1.48l0-21.46q0-4.75,0-9.5c0-1.2.07-1.26,1.25-1.27l6.53,0h.87c.46,0,.68-.2.67-.67,0-.28,0-.57,0-.86q0-7.47,0-14.93c0-.28,0-.57,0-.86,0-.9.05-.91.89-1h.74c2.14,0,4.28,0,6.42,0,1.06,0,1.07,0,1.08-1.11q0-3.15,0-6.29v-.74c0-1,0-1,1-1,1.27,0,2.55,0,3.82,0s2.3,0,3.46,0c.62,0,.89-.2.87-.85,0-1.07,0-2.14,0-3.2a32.5,32.5,0,0,1,.2-4.3c.08-.57.27-.82.84-.79,2,.12,4-.26,6-.23,3.37.07,6.74,0,10.11,0,1.32,0,1.32,0,1.33-1.37,0-2,0-4,0-6,0-1.7,0-1.71,1.69-1.71h31c.45,0,.9,0,1.35,0l.09,5.86c.69.81,1.39,1.61,2.07,2.44a2.13,2.13,0,0,0,1.82.8c4.8,0,9.61-.22,14.42.21,0,1.6,0,3.2,0,4.8,0,.39-.12.83.29,1.13a33.07,33.07,0,0,0,2.33,2.81c.32.4.77.38,1.23.39l5.37,0c0,1.58,0,3.17.06,4.76,0,.39-.13.82.18,1.17.48.92,1.36,1.51,1.92,2.37a1.89,1.89,0,0,0,1.79.82c1.75,0,3.51-.09,5.26.06q0,6.39.05,12.78a6.38,6.38,0,0,0,.16,2.42c.74.87,1.42,1.78,2.22,2.6a1.9,1.9,0,0,0,1.51.63C205,128.9,206.72,128.94,208.48,129ZM107.89,153.88a1.25,1.25,0,0,0,.07.23l4.62,5.26a1.47,1.47,0,0,0,1.23.41h20.45c0,.49.05,1,.05,1.47q0,10.23,0,20.45c0,1.08,0,1.08,1.05,1.1l1.1.06a7,7,0,0,1,.92,1,31.82,31.82,0,0,0,2.6,3,2,2,0,0,0,1.52.65c5.35,0,10.69,0,16,0,1.1,0,1.22-.11,1.2-1.21-.07-5.3.12-10.6.23-15.9.05-2.09,0-4.19,0-6.29,0-1,0-2.06,0-3.09,0-.84.08-1,.93-.91,3,.12,6-.28,9-.26,5.26.05,10.53,0,15.8,0h.86a.74.74,0,0,0,.83-.84v-.49q0-8.15,0-16.29a1.62,1.62,0,0,0-.41-1.36c-1.17-1.05-2-2.42-3.16-3.45,0-.78-.06-1.56-.06-2.34,0-.47-.16-.69-.64-.65-.29,0-.58,0-.87,0H160.44c-.49,0-1,0-1.47-.05a27.67,27.67,0,0,0-.19-4.17c0-4.49-.08-9,0-13.45,0-2-.16-3.67-1.79-4.94-.09-.07-.13-.21-.21-.3-1-1.12-1.83-2.42-3-3.45,0-.45-.06-.9-.06-1.35,0-1.54.08-1.36-1.43-1.36H135.72c-1.52,0-1.4-.17-1.4,1.38v26.27c0,1.6.15,1.42-1.48,1.42H106.33c-1.08,0-1.09,0-1.09,1.07v11.22c0,1.85,0,3.7,0,5.55s-.24,1.61,1.55,1.62C107.16,153.8,107.53,153.85,107.89,153.88Z"/><path class="cls-4" d="M162.41,82.82c-.45,0-.9,0-1.35,0h-31c-1.68,0-1.69,0-1.69,1.71,0,2,0,4,0,6,0,1.36,0,1.36-1.33,1.37-3.37,0-6.74.06-10.11,0-2,0-4,.35-6,.23-.57,0-.76.22-.84.79a32.5,32.5,0,0,0-.2,4.3c0,1.06,0,2.13,0,3.2,0,.65-.25.87-.87.85-1.16,0-2.31,0-3.46,0s-2.55,0-3.82,0c-.95,0-.95,0-1,1V103q0,3.14,0,6.29c0,1.09,0,1.1-1.08,1.11-2.14,0-4.28,0-6.42,0h-.74c-.84,0-.85,0-.89,1,0,.29,0,.58,0,.86q0,7.47,0,14.93c0,.29,0,.58,0,.86,0,.47-.21.68-.67.67H90l-6.53,0c-1.18,0-1.25.07-1.25,1.27q0,4.74,0,9.5l0,21.46c0,.49,0,1,.06,1.48-.89.1-2,.44-2.63-.06s-.22-1.62-.22-2.46q0-16.41,0-32.81c0-1.65-.13-1.51,1.54-1.51l6.54,0c1.11,0,1.13,0,1.12-1.17q0-7.83,0-15.66c0-.25,0-.5,0-.74,0-.88,0-.91.91-.91,2,0,4.11,0,6.17,0,.71,0,1.62.35,2.1-.21s.13-1.35.13-2c0-2,0-4,0-5.92,0-1,0-1,1-1,2.39,0,4.77,0,7.16,0,1,0,1,0,1-1,0-2.38,0-4.77,0-7.15,0-1.16,0-1.16,1.15-1.16l15.67,0h.74c.92,0,.93,0,.93-1,0-2.34,0-4.69,0-7,0-1.2,0-1.2,1.24-1.2l33.18,0h.13c.76.09,1.72-.39,2.23.2s.1,1.5.13,2.28A4.89,4.89,0,0,1,162.41,82.82Z"/><path class="cls-4" d="M180.81,92.13c-4.81-.43-9.62-.16-14.42-.21a2.13,2.13,0,0,1-1.82-.8c-.68-.83-1.38-1.63-2.07-2.44l17.24,0h.62c.47,0,.68.21.65.67A10.19,10.19,0,0,1,180.81,92.13Z"/><path class="cls-4" d="M88.73,162.65a18.9,18.9,0,0,1,2.54,3c.22.25.12.63.12,1,0,1.68,0,3.36,0,5,.07,3.07.17,6.14.26,9.21a7.29,7.29,0,0,1-2.42.21c-.5,0-.63-.27-.61-.7s0-.82,0-1.23q0-7.48,0-15C88.66,163.63,88.7,163.14,88.73,162.65Z"/><path class="cls-4" d="M190.07,101.31l-5.37,0c-.46,0-.91,0-1.23-.39a33.07,33.07,0,0,1-2.33-2.81c1.83-.2,3.66,0,5.5-.1.89,0,1.79,0,2.69,0,.59,0,.93.14.88.82A16.9,16.9,0,0,1,190.07,101.31Z"/><path class="cls-4" d="M199.28,110.49c-1.75-.15-3.51-.08-5.26-.06a1.89,1.89,0,0,1-1.79-.82c-.56-.86-1.44-1.45-1.92-2.37,2.82-.17,5.63,0,8.45-.1.47,0,.66.22.64.67A15,15,0,0,1,199.28,110.49Z"/><path class="cls-4" d="M208.48,129c-1.76,0-3.51,0-5.26,0a1.9,1.9,0,0,1-1.51-.63c-.8-.82-1.48-1.73-2.22-2.6l8.33-.09c.57,0,.83.21.8.79A12.15,12.15,0,0,1,208.48,129Z"/><path class="cls-4" d="M125.67,199.48c.92.89,1.65,1.93,2.48,2.9a1.67,1.67,0,0,1,.26,1.17c0,1.64-.08,3.29.08,4.93a5.3,5.3,0,0,1-2.17.23c-.52,0-.75-.21-.74-.73,0-.78,0-1.56,0-2.34C125.62,203.59,125.65,201.54,125.67,199.48Z"/><path class="cls-4" d="M107.21,190.31a33.08,33.08,0,0,1,2.31,2.57,2,2,0,0,1,.39,1.37c0,1.68-.1,3.37.1,5.05a10.8,10.8,0,0,1-2.2.13c-.55,0-.71-.25-.7-.75Q107.17,194.49,107.21,190.31Z"/><path class="cls-4" d="M98,181.15c.92.77,1.53,1.81,2.38,2.65a1.63,1.63,0,0,1,.33,1.26c0,1.68,0,3.36.07,5a10,10,0,0,1-2.19.13c-.44,0-.73-.11-.71-.61C98,186.79,97.83,184,98,181.15Z"/><path class="cls-5" d="M159,134.28c.49,0,1,.05,1.47.05h20.84c.29,0,.58,0,.87,0,.48,0,.64.18.64.65,0,.78,0,1.56.06,2.34,0,.45-.06.9-.06,1.35v13.7c0,1.55.09,1.41-1.39,1.41H155.23c-1.64,0-1.42-.16-1.42,1.46q0,13.1,0,26.17c0,1.48.16,1.37-1.41,1.38H137.82c-.45,0-.9,0-1.35.05l-1.1-.06c-1,0-1.05,0-1.05-1.1q0-10.23,0-20.45c0-.49,0-1-.05-1.47,0-1.77,0-3.53.05-5.3,0-.47-.17-.69-.65-.66-.24,0-.49,0-.74,0h-23.8c-.41,0-.82,0-1.23.06s-.73-.08-1.1-.08c-1.79,0-1.54.11-1.55-1.62s0-3.7,0-5.55V135.41c0-1.06,0-1.07,1.09-1.07h26.51c1.63,0,1.47.18,1.48-1.42V106.64c0-1.55-.12-1.38,1.4-1.38h16.64c1.51,0,1.42-.18,1.43,1.36,0,.45,0,.9.06,1.35,0,.29,0,.58,0,.86v24.3a4.17,4.17,0,0,1,0,.5c0,.53.21.72.73.7C156,134.3,157.49,134.29,159,134.28Z"/><path class="cls-4" d="M136.47,182.86c.45,0,.9-.05,1.35-.05h14.57c1.57,0,1.41.1,1.41-1.38q0-13.08,0-26.17c0-1.62-.22-1.46,1.42-1.46H181.4c1.48,0,1.39.14,1.39-1.41v-13.7c0-.45,0-.9.06-1.35,1.18,1,2,2.4,3.16,3.45a1.62,1.62,0,0,1,.41,1.36q0,8.15,0,16.29v.49a.74.74,0,0,1-.83.84h-.86c-5.27,0-10.54.05-15.8,0-3,0-6,.38-9,.26-.85,0-.91.07-.93.91,0,1,0,2.06,0,3.09,0,2.1,0,4.2,0,6.29-.11,5.3-.3,10.6-.23,15.9,0,1.1-.1,1.2-1.2,1.21-5.35,0-10.69,0-16,0a2,2,0,0,1-1.52-.65,31.82,31.82,0,0,1-2.6-3A7,7,0,0,0,136.47,182.86Z"/><path class="cls-4" d="M107.89,153.88c.41,0,.82-.06,1.23-.06h23.8c.25,0,.5,0,.74,0,.48,0,.66.19.65.66,0,1.77,0,3.53-.05,5.3H113.81a1.47,1.47,0,0,1-1.23-.41L108,154.11A1.25,1.25,0,0,1,107.89,153.88Z"/><path class="cls-4" d="M159,134.28c-1.48,0-3,0-4.44.05-.52,0-.77-.17-.73-.7a4.17,4.17,0,0,0,0-.5v-24.3c0-.28,0-.57,0-.86,1.12,1,1.94,2.33,3,3.45.08.09.12.23.21.3,1.63,1.27,1.84,3,1.79,4.94-.1,4.48,0,9,0,13.45A27.67,27.67,0,0,1,159,134.28Z"/></svg>