<svg id="Layer_1" data-name="Layer 1" xmlns="http://www.w3.org/2000/svg" viewBox="0 0 288 288"><defs><style>.cls-1{fill:#f56ad8;}.cls-2{fill:#f6f38c;}.cls-3{fill:#e446b8;}.cls-4{fill:#e3e355;}.cls-5{fill:#01e7da;}</style></defs><path class="cls-1" d="M72.67,123.36a21.35,21.35,0,0,1,3.75,0c1,.08,1.94.08,2.91.11H82.8l0,0c0,.45,0,.9,0,1.35v38.37c0,.41,0,.82,0,1.23l-3.5,0-5.32.2c-.44,0-.89,0-1.33-.06,0-.37,0-.74,0-1.11V124.47C72.7,124.1,72.68,123.73,72.67,123.36Z"/><path class="cls-2" d="M198.12,90.9c1.37.13,2.76.22,4.13.4,1,.13,1,.18,1.1,1.17a1.92,1.92,0,0,0,.18.45q0,7.29,0,14.59c0,1.44-.23,1.47,1.47,1.43a21.15,21.15,0,0,0,4.28.28c1,0,1,0,1.2,1.1,0,5.17,0,10.34,0,15.51,0,.28,0,.57.06.86l-.07.07a34.93,34.93,0,0,0-4.9-.29c-.54,0-1.07,0-1.61,0a.53.53,0,0,1-.59-.61c0-.29,0-.57,0-.86V114.5c0-1.56,0-3.12,0-4.69,0-.6-.18-.82-.82-.92a18.8,18.8,0,0,0-3.43-.19,15.8,15.8,0,0,1-2.07-.24c-.49,0-.63-.3-.62-.73s0-.57,0-.86c0-2.14,0-4.28,0-6.42,0-.59-.15-1-.83-.9-1.6.12-3.18-.36-4.78-.26a1.57,1.57,0,0,1-.61-.05c-1.15-.38-1.18.05-1.18-1.41q0-3.83,0-7.65l.07-.07,1.47.13Z"/><path class="cls-2" d="M169,69.88c1.44.18,2.88.38,4.33.54.46,0,.64.24.64.68s.05,1.05.07,1.58c0,2.3,0,4.59,0,6.89a71.41,71.41,0,0,1-7.45-.57c-2.85-.2-5.68-.63-8.52-.92s-5.78-.47-8.65-.8a23.62,23.62,0,0,1-2.68-.3c-1.68-.37-3.4-.37-5.1-.63,0-2.72,0-5.45,0-8.18,0-.43.15-.91-.29-1.24a1.16,1.16,0,0,1,1.05-.15c1.71.21,3.42.45,5.13.64,3.26.37,6.52.7,9.78,1.07Q163.12,69.16,169,69.88Z"/><path class="cls-2" d="M174,215.27c0,.52-.07,1-.07,1.57s-.19.7-.7.76c-1.41.15-2.81.36-4.21.56-1.62.16-3.25.31-4.88.49-3.33.38-6.67.78-10,1.18-2.52.3-5,.62-7.56.9-1.66.19-3.33.34-5,.5,0-3.19,0-6.39,0-9.58.75.06,1.43-.29,2.19-.26a20.37,20.37,0,0,0,3.4-.31c1.9-.25,3.81-.38,5.71-.63,2.06-.28,4.15-.29,6.21-.58.93-.13,1.88-.08,2.8-.26a34,34,0,0,1,3.76-.4c1.09-.1,2.19-.25,3.28-.34,1.67-.14,3.32-.44,5-.43l.09.06C174,210.76,174,213,174,215.27Z"/><path class="cls-2" d="M210.45,177.62c0,2.82,0,5.65,0,8.48,0,1.27,0,1.34-1.3,1.33s-2.76.27-4.15.34l-8.53.57c0-2.58,0-5.17-.06-7.75,0-1,.19-1.23,1.21-1.27a40.26,40.26,0,0,0,4.78-.23c.9-.15.92-.07.94-1,0-.25,0-.5,0-.74V162.78c0-1.24,0-1.24,1.2-1.25a22.23,22.23,0,0,0,2.95-.07,10.67,10.67,0,0,1,2.93-.08,6.68,6.68,0,0,0,.07,2.4Q210.46,170.71,210.45,177.62Z"/><path class="cls-1" d="M169,69.88q-5.86-.7-11.73-1.39c-3.26-.37-6.52-.7-9.78-1.07-1.71-.19-3.42-.43-5.13-.64a1.16,1.16,0,0,0-1.05.15,32.19,32.19,0,0,0-4.15,1.52l0,0c0-3.12,0-6.23,0-9.35a17.35,17.35,0,0,1,3.67.33c3.14.34,6.26.77,9.39,1.18,2.88.37,5.76.77,8.65,1.14s5.86.71,8.78,1.06l.74.1a.72.72,0,0,1,.68.84C169,65.77,169,67.82,169,69.88Z"/><path class="cls-2" d="M217.18,160.66c-.19.62-.7.58-1.2.59l-4.29.1h-1.21q0-14.22,0-28.44c0-2,0-4.1,0-6.15l.07-.07h1.16l4.32.07c.5,0,1,0,1.2.6,0,.49,0,1,0,1.48v30.35C217.15,159.67,217.17,160.16,217.18,160.66Z"/><path class="cls-1" d="M82.82,103.27a32.08,32.08,0,0,1,4.9.18c1,.14,1.06,0,1.06-.94,0-5.42,0-10.83,0-16.24,0-.43-.16-.91.2-1.29q0,8.47,0,17c0,.32,0,.65,0,1s.12.6.48.57c1-.07,1.92.41,2.92.23l0,0,0,19.5a43.31,43.31,0,0,1-5.22-.2,1.27,1.27,0,0,0-1,.12l-3.4.36,0,0Q82.82,113.38,82.82,103.27Z"/><path class="cls-1" d="M169,219.31c0,1.61,0,3.21,0,4.82a.89.89,0,0,1-.9,1.05l-6.47.79c-2.32.29-4.64.6-7,.9l-6.71.83c-2.36.29-4.72.63-7.08.89a19.33,19.33,0,0,1-3.8.34c0-3.07.05-6.15.07-9.22a.28.28,0,0,1,.17.09c.22.34.43.69.68,1,1.37,1.75,1.68,1.88,3.69,1.69.2,0,.4-.08.6-.11,1.62-.2,3.24-.42,4.87-.6s3.51-.29,5.24-.57c1.9-.32,3.82-.4,5.72-.67,1.74-.25,3.48-.48,5.23-.64S167.12,219.32,169,219.31Z"/><path class="cls-1" d="M92.16,83.72c.45-.33.94-.14,1.42-.1l4.51.37a13,13,0,0,0,3.73.25l.05,0c0,.54,0,1.07,0,1.6l0,17.12c-.44,0-.89,0-1.33,0a39.46,39.46,0,0,0-4.35-.19,28.11,28.11,0,0,0-3.69.94l0,0,0-19.11C92.45,84.28,92.48,83.94,92.16,83.72Z"/><path class="cls-1" d="M88.86,186.45c-.25-.6.24-1.44-.33-1.84s-1.18.08-1.79.08l-3.92.05V165a11.82,11.82,0,0,1,2.31,2.33,1.54,1.54,0,0,0,1.44.7c1.94,0,3.87,0,5.81,0a4.28,4.28,0,0,1,.05.49q0,7.91,0,15.81a9.91,9.91,0,0,0-1.09,0,5.83,5.83,0,0,0-2.12.39c-.54.3,0,1.14-.29,1.7A.6.6,0,0,1,88.86,186.45Z"/><path class="cls-1" d="M98.08,204l-4.51.38c-.47,0-1,.23-1.41-.1.46-.38.28-.91.28-1.38,0-5.59,0-11.18,0-16.77a2,2,0,0,1,.25-1.4c.54.82,1.31,1.33,1.78,2.11a1.91,1.91,0,0,0,1.76.89c1.85.07,3.67-.39,5.52-.27,0,.49.06,1,.06,1.47l0,14.79,0,0A18.77,18.77,0,0,0,98.08,204Z"/><path class="cls-1" d="M101.54,74.58a.88.88,0,0,1,.81-.17c2.85.29,5.7.64,8.55.87a28.29,28.29,0,0,0,5,.33,12.1,12.1,0,0,0,3.92.49l.07.06c0,.77,0,1.55,0,2.32,0,1.91.1,3.83-.08,5.74A4.83,4.83,0,0,0,119,84c-1.34-.11-2.69-.19-4-.3s-2.93-.35-4.4-.4a42.31,42.31,0,0,0-4.78-.31c-1.35.25-2.56.92-3.88,1.25l-.05,0c0-2.89,0-5.78,0-8.66C101.83,75.22,101.9,74.83,101.54,74.58Z"/><path class="cls-2" d="M189.08,204.94c-.22.61.24,1.41-.31,1.85s-1.22,0-1.78.21c-1,.33-2-.06-3,.47a.33.33,0,0,0-.22,0,6,6,0,0,0-.85,0c-2.11.19-4.23.34-6.33.63-.87.12-1.8-.09-2.62.42l-.09-.07c0-.91,0-1.81,0-2.71,0-1.94,0-3.87,0-5.8,0-.52.1-.84.73-.88,2.2-.13,4.41-.23,6.6-.52,1.34-.18,2.69-.15,4-.38a33.65,33.65,0,0,1,3.78-.23,4.42,4.42,0,0,0,.1,1.4A40.56,40.56,0,0,0,189.08,204.94Z"/><path class="cls-2" d="M184,80.56a.89.89,0,0,0,.68.22c1.2-.07,2.35.34,3.54.28.65,0,.86.29.83.9a8,8,0,0,0,.06,1.1c0,2.35,0,4.7,0,7l-.07.07c-2.43-.37-4.88-.49-7.31-.69-2.28-.2-4.55-.52-6.84-.55-.6,0-.91-.27-.9-.89,0-2.79-.09-5.58.07-8.37l5,.46A39.67,39.67,0,0,0,184,80.56Z"/><path class="cls-1" d="M119.57,66.69c.27-.29.61-.22.93-.18l9.77,1.15c.86.1,1.72.18,2.58.27l4.26.49,0,0c0,2.46,0,4.93,0,7.4-.41,0-.82,0-1.23,0-1.8-.17-3.59-.34-5.39-.53-1.42-.14-2.85-.33-4.28-.43A5.78,5.78,0,0,0,124,74.7l-4.11,1.46-.07-.06q0-4.21,0-8.41C119.86,67.33,119.94,66.94,119.57,66.69Z"/><path class="cls-3" d="M72.67,123.36c0,.37,0,.74,0,1.11v39.07c0,.37,0,.74,0,1.11-.77-.11-1.53-.24-2.31-.33-.48-.06-.73-.27-.68-.79,0-.29,0-.58,0-.86V125.35c0-1.66,0-1.66,1.64-1.82l.62,0,.25-.06Z"/><path class="cls-1" d="M115.91,212.39a30.11,30.11,0,0,0-5,.34c-2.12.15-4.23.43-6.35.64a14.14,14.14,0,0,0-1.71.17,1.44,1.44,0,0,1-1.29-.11c.4-.29.29-.73.29-1.12q0-4.27,0-8.55l0,0a.59.59,0,0,1,.46.23,9.21,9.21,0,0,0,2.23,2.84c.22.22.54.14.82.17.67.09,1.28-.26,1.94-.23a33.65,33.65,0,0,0,4.26-.33c1.14-.09,2.28-.12,3.42-.23,1.61-.17,3.24-.28,4.86-.42,0,2,.05,4.07.08,6.11A14,14,0,0,0,115.91,212.39Z"/><path class="cls-1" d="M132.83,220.07l-8.8,1c-1,.11-1.94.28-2.92.38-.51.06-1,.27-1.54-.11.44-.34.28-.83.29-1.26,0-2.26,0-4.51,0-6.77,0-.43-.14-.93.4-1.2l0,0c.48,1.12,1.5,1.8,2.18,2.75.16.23.42.14.68.11,1.33-.14,2.68-.18,4-.38,1.14-.17,2.29-.11,3.41-.31,2-.35,4-.27,5.93-.62.18,0,.39.11.58.18.12,1.9,0,3.81,0,5.71Z"/><path class="cls-1" d="M189.08,204.94a40.56,40.56,0,0,1,.09-5.62,14.58,14.58,0,0,0,3.36-.22c.5-.11.7-.3.68-.78,0-.24,0-.48,0-.73a5,5,0,0,1,2-.26c1.09-.08,1.1-.06,1.12-1.13,0-2,0-4,0-6a27.68,27.68,0,0,0,4.37-.33c1.4-.15,2.85,0,4.22-.44,0,1.6,0,3.2,0,4.8,0,.65-.25.84-.86.88-1.67.11-3.34.27-5,.45-1,.11-1,.14-1,1.19,0,2.1,0,4.19,0,6.28,0,1.13,0,1.12-1.1,1.24-2,.22-4.07.46-6.11.66A7.08,7.08,0,0,1,189.08,204.94Z"/><path class="cls-3" d="M92.37,168c-1.93,0-3.86,0-5.8,0a1.54,1.54,0,0,1-1.44-.7A11.82,11.82,0,0,0,82.82,165v19.79h0a.49.49,0,0,0-.24,0c-1-.17-2.31-.24-3-.92s-.2-1.87-.2-2.85c0-5.49,0-11-.07-16.46l3.5,0,3.5.45,6.06-.19A18.11,18.11,0,0,1,92.37,168Z"/><path class="cls-3" d="M101.77,187.47c-1.85-.12-3.67.34-5.52.27a1.91,1.91,0,0,1-1.76-.89c-.47-.78-1.24-1.29-1.78-2.11a2,2,0,0,0-.25,1.4c0,5.59,0,11.18,0,16.77,0,.47.18,1-.28,1.38A12.79,12.79,0,0,1,89,203q0-7.68,0-15.34a1.26,1.26,0,0,0-.13-.71c0-.18,0-.35,0-.53a.6.6,0,0,0,.06-.11c.24-.56-.25-1.4.29-1.7a5.83,5.83,0,0,1,2.12-.39,9.91,9.91,0,0,1,1.09,0,21.19,21.19,0,0,0,3.76,1c1.87.09,3.72-.3,5.59-.24A12.19,12.19,0,0,1,101.77,187.47Z"/><path class="cls-1" d="M184,80.56a39.67,39.67,0,0,1-5-.42l-5-.46,0-.11c0-2.3,0-4.59,0-6.89a13.45,13.45,0,0,1,3.41.24c1.86.17,3.73.38,5.58.63,1,.13,1,.18,1,1.12C184,76.63,184,78.59,184,80.56Z"/><path class="cls-3" d="M82.82,103.27q0,10.11,0,20.22H79.33q0-8.7,0-17.39c0-.61,0-1.23,0-1.85l.2-.21a20.15,20.15,0,0,1,3-.78h.24Z"/><path class="cls-3" d="M92.16,83.72c.32.22.29.56.29.89l0,19.11c-1,.18-1.93-.3-2.92-.23-.36,0-.48-.24-.48-.57s0-.66,0-1q0-8.49,0-17A12.42,12.42,0,0,1,92.16,83.72Z"/><path class="cls-1" d="M189.06,90.11c0-2.35,0-4.7,0-7a25.41,25.41,0,0,1,4.17.28c1.3,0,2.6.28,3.9.41,1,.1,1,.09,1,1.12,0,2,0,4,0,6l-7.59-.66Z"/><path class="cls-1" d="M183.93,208.66c.18,1.67,0,3.35.08,5,0,.45-.17.62-.62.73a21.83,21.83,0,0,1-2.67.31c-1.78.26-3.57.43-5.35.61a2.17,2.17,0,0,1-1.21-.07c0-1.56,0-3.11,0-4.67,0-.59.18-.83.82-.93.93-.14,1.87-.12,2.79-.27C179.8,209.06,181.87,209,183.93,208.66Z"/><path class="cls-1" d="M217.18,160.66c0-.5,0-1,0-1.48V128.83c0-.5,0-1,0-1.48,1.13,0,1.15,0,1.15,1v31.35C218.33,160.69,218.31,160.69,217.18,160.66Z"/><path class="cls-3" d="M169,219.31c-1.89,0-3.74.44-5.61.61s-3.49.39-5.23.64c-1.9.27-3.82.35-5.72.67-1.73.28-3.5.37-5.24.57s-3.25.4-4.87.6c-.2,0-.4.1-.6.11-2,.19-2.32.06-3.69-1.69-.25-.33-.46-.68-.68-1a2.7,2.7,0,0,1,1,.29l3.19,1.14c1.67-.16,3.34-.31,5-.5,2.52-.28,5-.6,7.56-.9,3.33-.4,6.67-.8,10-1.18,1.63-.18,3.26-.33,4.88-.49A1.53,1.53,0,0,1,169,219.31Z"/><path class="cls-3" d="M132.83,220.07l4.3-.51a.21.21,0,0,1,.07.15c0,3.07,0,6.15-.07,9.22a30.07,30.07,0,0,1-3.76-1.45c-.52-.19-.47-.61-.47-1l0-5.66C132.87,220.56,132.84,220.31,132.83,220.07Z"/><path class="cls-3" d="M137.11,68.42l-4.26-.49c0-2.08.06-4.17,0-6.26a1.11,1.11,0,0,1,.83-1.28,28.39,28.39,0,0,1,3.42-1.32C137.12,62.19,137.12,65.3,137.11,68.42Z"/><path class="cls-3" d="M120.27,212.09c-.54.27-.39.77-.4,1.2,0,2.26,0,4.51,0,6.77,0,.43.15.92-.29,1.26-1-.29-2-.82-3-1.17a1,1,0,0,1-.7-1.12c0-2.21,0-4.43,0-6.64a14,14,0,0,1,4-.52Z"/><path class="cls-3" d="M119.57,66.69c.37.25.29.64.29,1q0,4.2,0,8.41a12.1,12.1,0,0,1-3.92-.49c0-2.17,0-4.34,0-6.5,0-.32-.09-.67.17-.94a.36.36,0,0,0,.32-.19A27.18,27.18,0,0,1,119.57,66.69Z"/><path class="cls-3" d="M101.54,74.58c.36.25.29.64.29,1,0,2.88,0,5.77,0,8.66A13,13,0,0,1,98.09,84c0-2.29.07-4.58,0-6.86a1.44,1.44,0,0,1,1.15-1.69C100,75.21,100.78,74.87,101.54,74.58Z"/><path class="cls-3" d="M101.82,203.76q0,4.28,0,8.55c0,.39.11.83-.29,1.12-.91-.36-1.82-.73-2.74-1.06a1,1,0,0,1-.68-1.12c0-2.42,0-4.83,0-7.24A18.77,18.77,0,0,1,101.82,203.76Z"/><path class="cls-1" d="M205,108.94c-1.7,0-1.47,0-1.47-1.43q0-7.29,0-14.59c.16,0,.33,0,.49,0,1,.07,1,.07,1,1.08q0,5.45,0,10.91C205,106.25,205,107.6,205,108.94Z"/><path class="cls-1" d="M211.66,126.68H210.5c0-.29-.06-.58-.06-.86,0-5.17,0-10.34,0-15.51.24,0,.48.07.73.08a.48.48,0,0,1,.51.55c0,.16,0,.33,0,.49v14.63C211.71,126.27,211.68,126.48,211.66,126.68Z"/><path class="cls-1" d="M210.45,177.62q0-6.92,0-13.84l1.21,0c0,4.31,0,8.62,0,12.93C211.7,177.57,211.68,177.57,210.45,177.62Z"/><path class="cls-3" d="M205,189.42c-1.37.49-2.82.29-4.22.44a27.68,27.68,0,0,1-4.37.33c0-.57,0-1.15,0-1.73a.14.14,0,0,0,.09-.11l8.53-.58A6.08,6.08,0,0,1,205,189.42Z"/><path class="cls-3" d="M183.93,208.66c-2.06.29-4.13.4-6.18.73-.92.15-1.86.13-2.79.27-.64.1-.83.34-.82.93,0,1.56,0,3.11,0,4.67H174c0-2.26,0-4.51,0-6.77.82-.5,1.75-.29,2.62-.41,2.1-.29,4.22-.44,6.33-.63a6,6,0,0,1,.85,0c0,.24,0,.49.15.7Z"/><path class="cls-1" d="M88.88,187a1.26,1.26,0,0,1,.13.71q0,7.67,0,15.34c-.25-.22-.2-.52-.2-.81,0-4.88,0-9.76,0-14.64A4.14,4.14,0,0,1,88.88,187Z"/><path class="cls-3" d="M211.68,163.75l-1.21,0a6.68,6.68,0,0,1-.07-2.4l.08,0h1.21C211.69,162.15,211.68,163,211.68,163.75Z"/><path class="cls-1" d="M184,208.19c-.19-.21-.14-.46-.15-.7a.33.33,0,0,1,.22,0C184,207.71,184,208,184,208.19Z"/><path class="cls-1" d="M82.58,184.74a.49.49,0,0,1,.24,0C82.74,184.87,82.66,184.84,82.58,184.74Z"/><path class="cls-1" d="M79.62,104.05l-.2.21C79.4,104.11,79.48,104.05,79.62,104.05Z"/><path class="cls-1" d="M72.19,123.44l-.25.06C72,123.42,72.08,123.35,72.19,123.44Z"/><path class="cls-1" d="M82.82,103.27h-.24C82.66,103.16,82.74,103.14,82.82,103.27Z"/><path class="cls-1" d="M116.41,68a.36.36,0,0,1-.32.19A.33.33,0,0,1,116.41,68Z"/><path class="cls-4" d="M86.32,164.93l-3.5-.45c0-.41,0-.82,0-1.23V124.88c0-.45,0-.9,0-1.35l3.4-.36c0,.58,0,1.15,0,1.73v38.55C86.27,163.94,86.3,164.44,86.32,164.93Z"/><path class="cls-4" d="M210.48,161.35l-.08,0a10.67,10.67,0,0,0-2.93.08,22.23,22.23,0,0,1-2.95.07c-1.19,0-1.2,0-1.2,1.25v14.54c0,.24,0,.49,0,.74,0,1,0,.88-.94,1a40.26,40.26,0,0,1-4.78.23c-1,0-1.21.24-1.21,1.27,0,2.58,0,5.17.06,7.75a.14.14,0,0,1-.09.12c-2-.18-3.92.36-5.89.25-.23,0-.47.15-.71.17-.56,0-.78.29-.77.87,0,2.71,0,5.42,0,8.14l0,0a33.65,33.65,0,0,0-3.78.23c-1.34.23-2.69.2-4,.38-2.19.29-4.4.39-6.6.52-.63,0-.73.36-.73.88,0,1.93,0,3.86,0,5.8,0,.9,0,1.8,0,2.71-1.67,0-3.32.29-5,.43-1.09.09-2.19.24-3.28.34a34,34,0,0,0-3.76.4c-.92.18-1.87.13-2.8.26-2.06.29-4.15.3-6.21.58-1.9.25-3.81.38-5.71.63a20.37,20.37,0,0,1-3.4.31c-.76,0-1.44.32-2.19.26h0l0-2a27,27,0,0,0,3.92-.3c4.87-.44,9.73-1,14.59-1.43,2.66-.27,5.32-.51,8-.78.89-.09.93-.15.93-1.08,0-2.26,0-4.52,0-6.79,0-1.31-.23-1.11,1.27-1.38l.24,0,12.29-1c1-.09,1-.08,1-1.18q0-3.21,0-6.42c0-1.29,0-1.27,1.24-1.35,1.72-.12,3.44-.31,5.16-.39.67,0,.85-.32.81-.92,0-.32,0-.65,0-1,0-2,0-4,0-6,0-.56.14-.8.76-.81,1.39,0,2.79-.17,4.18-.23,2.08-.08,2.08-.06,2.08-2.08v-14c0-1.19,0-1.17,1.14-1.3,1.59-.2,3.2-.08,4.8-.17.93-.06.95-.06.95-1l0-32c0-1,0-1-.95-1-1.6-.06-3.2-.06-4.81-.11-1.08,0-1.08,0-1.1-1.1v-.61c0-4.82,0-9.63,0-14.44,0-1.06,0-1.06-1.08-1.12l-4.8-.27c-1.05-.06-1.06-.06-1.07-1.15q0-3.21,0-6.42c0-1.34,0-1.21-1.17-1.28-1.68-.09-3.36-.2-5-.35-1-.09-1-.13-1-1.13,0-2.27,0-4.53,0-6.79,0-.94,0-1-1-1.06-2.33-.19-4.66-.36-7-.56-2-.16-4.09-.36-6.14-.5-.56,0-.85-.22-.8-.82a8.19,8.19,0,0,0,0-.86c0-2.18,0-4.36,0-6.54,0-.58-.11-.88-.79-.94-3.27-.29-6.54-.63-9.8-1l-8.83-.9c-2.65-.25-5.31-.47-8-.71l0-2.1h0c1.7.26,3.42.26,5.1.63a23.62,23.62,0,0,0,2.68.3c2.87.33,5.77.51,8.65.8s5.67.72,8.52.92a71.41,71.41,0,0,0,7.45.57l0,.11c-.16,2.79,0,5.58-.07,8.37,0,.62.3.88.9.89,2.29,0,4.56.35,6.84.55,2.43.2,4.88.32,7.31.69q0,3.82,0,7.65c0,1.46,0,1,1.18,1.41a1.57,1.57,0,0,0,.61.05c1.6-.1,3.18.38,4.78.26.68,0,.83.31.83.9,0,2.14,0,4.28,0,6.42,0,.29,0,.57,0,.86s.13.68.62.73a15.8,15.8,0,0,0,2.07.24,18.8,18.8,0,0,1,3.43.19c.64.1.83.32.82.92,0,1.57,0,3.13,0,4.69V125c0,.29,0,.57,0,.86a.53.53,0,0,0,.59.61c.54,0,1.07,0,1.61,0a34.93,34.93,0,0,1,4.9.29c0,2,0,4.1,0,6.15Q210.48,147.13,210.48,161.35Z"/><path class="cls-4" d="M137.12,75.85c0-2.47,0-4.94,0-7.4a32.19,32.19,0,0,1,4.15-1.52c.44.33.28.81.29,1.24,0,2.73,0,5.46,0,8.18h0A19.21,19.21,0,0,1,137.12,75.85Z"/><path class="cls-4" d="M137.2,219.71a.21.21,0,0,0-.07-.15c0-1.9.07-3.81,0-5.71a5.51,5.51,0,0,0,0-1.72,19.07,19.07,0,0,1,4.52-.47h0c0,3.19,0,6.39,0,9.58l-3.19-1.14a2.7,2.7,0,0,0-1-.29A.28.28,0,0,0,137.2,219.71Z"/><path class="cls-2" d="M86.32,164.93c0-.49,0-1,0-1.48V124.9c0-.58,0-1.15,0-1.73a1.27,1.27,0,0,1,1-.12,43.31,43.31,0,0,0,5.22.2,17.41,17.41,0,0,1,3,.23c.43.07.68.21.73.64s0,.83,0,1.24q0,19.32,0,38.63c-.05.41-.32.47-.68.53a18.12,18.12,0,0,1-3.12.22Z"/><path class="cls-4" d="M96.19,124.12c0-.43-.3-.57-.73-.64a17.41,17.41,0,0,0-3-.23l0-19.5a28.11,28.11,0,0,1,3.69-.94q0,9.34,0,18.71c0,.32,0,.65,0,1,0,.49.15.78.7.77,1.51,0,3,.33,4.53.24.94-.05,1.88,0,2.83,0,.28,0,.58,0,.8.21a20.22,20.22,0,0,1-5.26.42A21.16,21.16,0,0,0,96.19,124.12Z"/><path class="cls-2" d="M105,123.73c-.22-.26-.52-.21-.8-.21-.95,0-1.89-.06-2.83,0-1.53.09-3-.26-4.53-.24-.55,0-.72-.28-.7-.77,0-.33,0-.66,0-1q0-9.36,0-18.71a39.46,39.46,0,0,1,4.35.19c.44,0,.89,0,1.33,0a3.93,3.93,0,0,0,2.06.25c1.48,0,1.48,0,1.88,1.34v18.14c0,.16,0,.33,0,.49C105.76,123.77,105.42,123.81,105,123.73Z"/><path class="cls-4" d="M105.75,104.59c-.4-1.33-.4-1.32-1.88-1.34a3.93,3.93,0,0,1-2.06-.25l0-17.12c0-.53,0-1.06,0-1.6,1.32-.33,2.53-1,3.89-1.25q0,9.31,0,18.64c0,.33,0,.66,0,1a.52.52,0,0,0,.61.59c1.23,0,2.43.34,3.68.27s2.68.33,4,.27c.1,0,.2.12.3.19a14,14,0,0,1-5.26.79A22.72,22.72,0,0,0,105.75,104.59Z"/><path class="cls-4" d="M92.38,164.74a18.12,18.12,0,0,0,3.12-.22c.36-.06.63-.12.68-.53.74,0,1.48,0,2.22,0a26.88,26.88,0,0,1,6.64.35,1.76,1.76,0,0,1-1,.13,52.78,52.78,0,0,0-7,.24c-.89.15-.92.09-.93,1q0,3.08,0,6.16l0,13.3a21.19,21.19,0,0,1-3.76-1q0-7.91,0-15.81a4.28,4.28,0,0,0-.05-.49A19.12,19.12,0,0,0,92.38,164.74Z"/><path class="cls-4" d="M101.77,187.47a12.19,12.19,0,0,0,0-2.49,15.49,15.49,0,0,1,4-.24V205c-1.21-.17-2.26-.85-3.47-1a.59.59,0,0,0-.46-.23l0-14.79C101.83,188.45,101.79,188,101.77,187.47Z"/><path class="cls-2" d="M114.41,104c-.1-.07-.2-.19-.3-.19-1.36.06-2.69-.34-4-.27s-2.45-.3-3.68-.27a.52.52,0,0,1-.61-.59c0-.33,0-.66,0-1q0-9.32,0-18.64a42.28,42.28,0,0,1,4.77.31c1.47,0,2.93.27,4.4.4s2.7.19,4,.3a4.83,4.83,0,0,1,.84.18c1.43,0,2.82.4,4.25.28h0c0,.71,0,1.42,0,2.12a6.13,6.13,0,0,1,0,2.45l0,5c.06.43-.17.56-.55.53-.1-.07-.19-.19-.3-.2-2.08-.18-4.15-.35-6.23-.51-.49,0-1,0-1.48,0s-.6.2-.61.6a1.3,1.3,0,0,0,.2.94,26,26,0,0,1-.08,3.53,37.21,37.21,0,0,0-.07,4.84A.55.55,0,0,1,114.41,104Z"/><path class="cls-4" d="M124.06,84.5c-1.43.12-2.82-.32-4.25-.28.18-1.91,0-3.83.08-5.74,0-.77,0-1.55,0-2.32L124,74.7Z"/><path class="cls-3" d="M193.21,197.59c0,.25,0,.49,0,.73,0,.48-.18.67-.68.78a14.58,14.58,0,0,1-3.36.22,4.42,4.42,0,0,1-.1-1.4l0,0A29,29,0,0,1,193.21,197.59Z"/><path class="cls-2" d="M124.06,84.5l0-9.8a5.78,5.78,0,0,1,2.19.16c1.43.1,2.86.29,4.28.43,1.8.19,3.59.36,5.39.53.41,0,.82,0,1.23,0a19.21,19.21,0,0,0,4.47.5l0,2.1c0,.66,0,1.31,0,2,0,1.64,0,3.28,0,4.92,0,.37.15.88-.53.86-.06,0-.12-.14-.18-.15-1.75-.19-3.49-.47-5.24-.53-1.4-.06-2.78-.25-4.16-.35-1.06-.08-2.14-.07-3.18-.24-1.42-.24-2.85-.22-4.27-.44Z"/><path class="cls-4" d="M120.27,212.09l-.34-.22c0-2-.05-4.07-.08-6.11a5,5,0,0,0-.09-2,41.21,41.21,0,0,1,4.3-.29c0,3.28,0,6.55,0,9.83-1.3-.29-2.45-1-3.78-1.21Z"/><path class="cls-3" d="M119.76,203.79a5,5,0,0,1,.09,2c-1.62.14-3.25.25-4.86.42-1.14.11-2.28.14-3.42.23a33.65,33.65,0,0,1-4.26.33c-.66,0-1.27.32-1.94.23-.28,0-.6.05-.82-.17a9.21,9.21,0,0,1-2.23-2.84c1.21.19,2.26.87,3.47,1,3.57-.15,7.12-.57,10.67-.88A13.55,13.55,0,0,0,119.76,203.79Z"/><path class="cls-3" d="M120.3,212.12c1.33.18,2.48.92,3.78,1.21,2-.05,4-.37,5.94-.53,2.35-.2,4.7-.45,7-.67a5.51,5.51,0,0,1,0,1.72c-.19-.07-.4-.21-.58-.18-2,.35-4,.27-5.93.62-1.12.2-2.27.14-3.41.31-1.32.2-2.67.24-4,.38-.26,0-.52.12-.68-.11C121.8,213.92,120.78,213.24,120.3,212.12Z"/><path class="cls-2" d="M193.21,197.59a29,29,0,0,0-4.17.3c0-2.72,0-5.43,0-8.14,0-.58.21-.83.77-.87.24,0,.48-.18.71-.17,2,.11,3.92-.43,5.89-.25,0,.58,0,1.16,0,1.73,0,2,0,4,0,6,0,1.07,0,1.05-1.12,1.13A5,5,0,0,0,193.21,197.59Z"/><path class="cls-2" d="M105.79,184.74a15.49,15.49,0,0,0-4,.24c-1.87-.06-3.72.33-5.59.24l0-13.3q0-3.09,0-6.16c0-.95,0-.89.93-1a52.78,52.78,0,0,1,7-.24,1.76,1.76,0,0,0,1-.13c.35-.07.67-.06.7.42,0,.32,0,.65,0,1q0,8.9,0,17.79v1.2Z"/><path class="cls-5" d="M105.78,183.54q0-8.89,0-17.79c0-.33,0-.66,0-1,0-.48-.35-.49-.7-.42A26.88,26.88,0,0,0,98.4,164c-.74,0-1.48,0-2.22,0q0-19.32,0-38.63c0-.41,0-.83,0-1.24a21.16,21.16,0,0,1,3.56,0,20.22,20.22,0,0,0,5.26-.42c.41.08.75,0,.73-.51,0-.16,0-.33,0-.49V104.59a22.72,22.72,0,0,1,3.4.18,14,14,0,0,0,5.26-.79.55.55,0,0,0,.57-.2,25.25,25.25,0,0,0,.07-4.84,26,26,0,0,0,.08-3.53,11,11,0,0,1,2.07,0,11.52,11.52,0,0,0,6.35-.85c.38,0,.61-.1.55-.53a27,27,0,0,0,0-5,6.13,6.13,0,0,0,0-2.45c.17-.11.3-.27.54-.25,3,.26,6,.52,8.93.75a14.52,14.52,0,0,0,3.89.17c1.24-.26,2.44-.71,3.65-1.08.68,0,.53-.49.53-.86,0-1.64,0-3.28,0-4.92,0-.66,0-1.31,0-2,2.66.24,5.32.46,8,.71l8.83.9c3.26.33,6.53.67,9.8,1,.68.06.79.36.79.94,0,2.18,0,4.36,0,6.54a8.19,8.19,0,0,1,0,.86c0,.6.24.78.8.82,2,.14,4.09.34,6.14.5,2.34.2,4.67.37,7,.56.91.08,1,.12,1,1.06,0,2.26,0,4.52,0,6.79,0,1,0,1,1,1.13,1.68.15,3.36.26,5,.35,1.21.07,1.17-.06,1.17,1.28q0,3.21,0,6.42c0,1.09,0,1.09,1.07,1.15l4.8.27c1.07.06,1.08.06,1.08,1.12,0,4.81,0,9.62,0,14.44v.61c0,1,0,1.07,1.1,1.1,1.61.05,3.21.05,4.81.11.93,0,.95.07.95,1l0,32c0,.93,0,.93-.95,1-1.6.09-3.21,0-4.8.17-1.13.13-1.14.11-1.14,1.3v14c0,2,0,2-2.08,2.08-1.39.06-2.79.19-4.18.23-.62,0-.77.25-.76.81,0,2,0,4,0,6,0,.33,0,.66,0,1,0,.6-.14.88-.81.92-1.72.08-3.44.27-5.16.39-1.23.08-1.24.06-1.24,1.35q0,3.21,0,6.42c0,1.1,0,1.09-1,1.18l-12.29,1-.24,0c-1.5.27-1.26.07-1.27,1.38,0,2.27,0,4.53,0,6.79,0,.93,0,1-.93,1.08-2.66.27-5.32.51-8,.78-4.86.48-9.72,1-14.59,1.43a27,27,0,0,1-3.92.3c0-2.28,0-4.55,0-6.82,0-.31.21-.78-.37-.86a4,4,0,0,0-1.37-.49,11,11,0,0,0-3.34-.71c-1.63.12-3.26.28-4.89.42-2.21.18-4.41.38-6.61.54-.81.06-.83,0-.84-.77,0-1.07,0-2.14,0-3.2a27.13,27.13,0,0,0-.1-4,.1.1,0,0,0-.11-.11,20.1,20.1,0,0,0-2.93-.87,5.24,5.24,0,0,0-2.3-.2c-1.16.14-2.34.14-3.46.19a2.94,2.94,0,0,1-.16-1.33c0-2,0-4,0-6,0-.35.14-.74-.15-1.06,0-.07,0-.1-.12-.08a13.23,13.23,0,0,0-5.5-.88C108.15,183.49,107,183.52,105.78,183.54Zm39.71-2.34c.06.32.33.31.56.35,1.32.24,2.64.51,4,.71,1.57.23,3.1.66,4.69.74a16.74,16.74,0,0,0,3.32-.06c3.9-.21,7.79-.5,11.68-.73,1.53-.09,1.53-.06,1.53-1.57l0-25.91c0-1.1,0-1.1,1-1.12l13.81-.2,7.28-.11c1,0,1,0,1-1q0-8.21,0-16.41c0-1,0-1-1-1-4.28-.06-8.55-.13-12.83-.18-2.75,0-5.51,0-8.26-.08-1.08,0-1.08,0-1.1-1.09v-25.9c0-.33,0-.66,0-1,0-.49-.23-.62-.67-.65-2.26-.12-4.51-.27-6.76-.41-2.58-.16-5.16-.34-7.74-.47a3.17,3.17,0,0,0-1.7.11,26.61,26.61,0,0,0-3.85.62,32.44,32.44,0,0,0-5,1c-.31.4-.15.87-.15,1.31q0,12.21,0,24.42c0,.29,0,.58,0,.86,0,.54-.2.72-.72.71-2.26,0-4.53,0-6.78-.07-3.13-.15-6.25-.1-9.37-.11-2.58.07-5.17.19-7.74.4-.83.07-.85.09-.85.95v11.46c0,2.1,0,4.19,0,6.29,0,.56.18.82.77.83,2.63,0,5.24.4,7.87.31,1.51,0,3,0,4.53,0a40.6,40.6,0,0,0,4.55-.1l6.11.05c1.78,0,1.54-.23,1.59,1.55a27.18,27.18,0,0,0,.15,4.51,1.76,1.76,0,0,0-.09.85q0,9.6,0,19.2A1.79,1.79,0,0,0,145.49,181.2Z"/><path class="cls-2" d="M141.24,202c.58.08.37.55.37.86,0,2.27,0,4.54,0,6.82l0,2a19.07,19.07,0,0,0-4.52.47c-2.35.22-4.7.47-7,.67-2,.16-4,.48-5.94.53,0-3.28,0-6.55,0-9.83h0c1.62-.17,3.24-.43,4.87-.47,1.43,0,2.85-.25,4.28-.33C135.88,202.57,138.56,202.24,141.24,202Z"/><path class="cls-2" d="M119.76,203.79a13.55,13.55,0,0,1-3.3.33c-3.55.31-7.1.73-10.67.88V184.74h0a14.62,14.62,0,0,0,1.48,0,68.52,68.52,0,0,1,7.57-.47c.07,0,.11,0,.12.08v7.36c0,.58,0,1.15,0,1.72s.22.74.74.73c.69,0,1.39,0,2.08,0,2.06-.25,4.13-.39,6.21-.45a.1.1,0,0,1,.11.11c0,3.26,0,6.51,0,9.77h0A41.21,41.21,0,0,0,119.76,203.79Z"/><path class="cls-4" d="M141.08,86.2c-1.21.37-2.41.82-3.65,1.08a14.52,14.52,0,0,1-3.89-.17c-3-.23-6-.49-8.93-.75-.24,0-.37.14-.54.25,0-.7,0-1.41,0-2.12,1.42.22,2.85.2,4.27.44,1,.17,2.12.16,3.18.24,1.38.1,2.76.29,4.16.35,1.75.06,3.49.34,5.24.53C141,86.06,141,86.15,141.08,86.2Z"/><path class="cls-4" d="M123.55,94.6a11.52,11.52,0,0,1-6.35.85,11,11,0,0,0-2.07,0,1.3,1.3,0,0,1-.2-.94c0-.4.2-.61.61-.6s1,0,1.48,0c2.08.16,4.15.33,6.23.51C123.36,94.41,123.45,94.53,123.55,94.6Z"/><path class="cls-4" d="M115.05,98.94a25.25,25.25,0,0,1-.07,4.84A37.21,37.21,0,0,1,115.05,98.94Z"/><path class="cls-4" d="M124.07,89.06a27,27,0,0,1,0,5Z"/><path class="cls-4" d="M114.83,184.24a68.52,68.52,0,0,0-7.57.47,14.62,14.62,0,0,1-1.48,0v-1.2c1.18,0,2.37,0,3.55-.18A13.23,13.23,0,0,1,114.83,184.24Z"/><path class="cls-1" d="M128.5,133.93c3.12,0,6.24,0,9.37.11,2.25.11,4.52,0,6.78.07.52,0,.76-.17.72-.71,0-.28,0-.57,0-.86q0-12.21,0-24.42c0-.44-.16-.91.15-1.31v25.51c0,.28,0,.57,0,.86,0,.92,0,.93,1,.95H149c1.52,0,3,0,4.56,0,1.11.06,1.12.13,1.12-1q0-13.36,0-26.74c0-.43.14-.92-.3-1.25a3.17,3.17,0,0,1,1.7-.11c2.58.13,5.16.31,7.74.47,2.25.14,4.5.29,6.76.41.44,0,.69.16.67.65,0,.33,0,.66,0,1v25.9c0,1.07,0,1.08,1.1,1.09,2.75,0,5.51,0,8.26.08,4.28.05,8.55.12,12.83.18,1,0,1,0,1,1q0,8.2,0,16.41c0,1,0,1-1,1l-7.28.11-13.81.2c-1,0-1,0-1,1.12l0,25.91c0,1.51,0,1.48-1.53,1.57-3.89.23-7.78.52-11.68.73a16.74,16.74,0,0,1-3.32.06c0-.25,0-.5,0-.74v-24c0-1.14.33-2.26.24-3.42s-.14-1.14-1.24-1.19-2.18.25-3.3.24c-3.86,0-7.72,0-11.58,0a1.73,1.73,0,0,0-1.18.18,40.6,40.6,0,0,1-4.55.1c-1.51,0-3,0-4.53,0,0-.33,0-.66,0-1Z"/><path class="cls-3" d="M137.62,154.07a1.73,1.73,0,0,1,1.18-.18c3.86,0,7.72-.06,11.58,0,1.12,0,2.19-.29,3.3-.24s1.16.12,1.24,1.19-.24,2.28-.24,3.42v24c0,.24,0,.49,0,.74-1.59-.08-3.12-.51-4.69-.74-1.33-.2-2.65-.47-4-.71-.23,0-.5,0-.56-.35s0-.41,0-.62q0-9.77,0-19.54c0-.29,0-.57-.06-.86a27.18,27.18,0,0,1-.15-4.51c0-1.78.19-1.53-1.59-1.55Z"/><path class="cls-3" d="M154.37,105.18c.44.33.3.82.3,1.25q0,13.38,0,26.74c0,1.13,0,1.06-1.12,1-1.52-.07-3,0-4.56,0h-2.46c-1,0-1,0-1-.95,0-.29,0-.58,0-.86V106.81a32.44,32.44,0,0,1,5-1A26.61,26.61,0,0,1,154.37,105.18Z"/><path class="cls-3" d="M128.5,133.93v19.25c0,.33,0,.66,0,1-2.63.09-5.24-.27-7.87-.31-.59,0-.77-.27-.77-.83,0-2.1,0-4.19,0-6.29V135.28c0-.86,0-.88.85-.95C123.33,134.12,125.92,134,128.5,133.93Z"/><path class="cls-4" d="M124.05,203.51c0-3.26,0-6.51,0-9.77a27.13,27.13,0,0,1,.1,4c0,1.06,0,2.13,0,3.2,0,.8,0,.83.84.77,2.2-.16,4.4-.36,6.61-.54,1.63-.14,3.26-.3,4.89-.42a11,11,0,0,1,3.34.71,4,4,0,0,1,1.37.49c-2.68.26-5.36.59-8,.73-1.43.08-2.85.3-4.28.33C127.29,203.08,125.67,203.34,124.05,203.51Z"/><path class="cls-4" d="M124,193.63c-2.08.06-4.15.2-6.21.45-.69.08-1.39,0-2.08,0-.52,0-.76-.21-.74-.73s0-1.14,0-1.72v-7.36c.29.32.15.71.15,1.06,0,2,0,4,0,6a2.94,2.94,0,0,0,.16,1.33c1.12-.05,2.3-.05,3.46-.19a5.24,5.24,0,0,1,2.3.2A20.1,20.1,0,0,1,124,193.63Z"/><path class="cls-1" d="M145.47,160.18c0,.29.06.57.06.86q0,9.77,0,19.54c0,.21,0,.41,0,.62a1.79,1.79,0,0,1-.11-1q0-9.6,0-19.2A1.76,1.76,0,0,1,145.47,160.18Z"/></svg>