<svg id="Layer_1" data-name="Layer 1" xmlns="http://www.w3.org/2000/svg" viewBox="0 0 288 288"><defs><style>.cls-1{fill:#6d77ad;}.cls-2{fill:#342482;}.cls-3{fill:#b8c0e1;}.cls-4{fill:#c6cde8;}.cls-5{fill:#090e12;}</style></defs><path class="cls-1" d="M199.08,184.4q0,8.74,0,17.47c0,1.43,0,1.17-1.17,1.63a4.61,4.61,0,0,1-2.33.64c0-1.79,0-3.57,0-5.36,0-.58-.09-.65-.63-.79a8.44,8.44,0,0,0-2-.26,20.16,20.16,0,0,1-2.46-.06c-2.29-.26-4.6-.44-6.9-.53a9.78,9.78,0,0,1-1.87-.17,5.77,5.77,0,0,0-1.44,0,.38.38,0,0,0-.37.37c0,.34,0,.68,0,1,0,2.13,0,4.25,0,6.37,0,1.93.1,1.74-1.84,1.77-1.26,0-2.48-.31-3.74-.31a10.44,10.44,0,0,1-2.73-.19c-.4-.1-.64.12-.65.55,0,1.59,0,3.19,0,4.78a.81.81,0,0,0,.63.85,5.59,5.59,0,0,0,.56.12c0,2.25,0,4.49,0,6.74a1,1,0,0,1-.68,1.11c-.89.34-1.76.74-2.65,1.09a2.74,2.74,0,0,1-.71.05c0-1.16,0-2.32,0-3.48,0-.68,0-1.35,0-2a.54.54,0,0,0-.55-.56,35.82,35.82,0,0,1-3.88-.33c-1.3-.12-2.61-.13-3.88-.37-.91-.17-1.84-.08-2.73-.28a11.13,11.13,0,0,0-2.3-.21c-1.12,0-1.17,0-1.19,1.09s0,2.32,0,3.48,0,1.33,1.37,1.54a2.71,2.71,0,0,0,.29,0c0,2.07,0,4.14,0,6.21a1.08,1.08,0,0,1-.75,1.22c-1.08.4-2.14.86-3.22,1.29l-.31,0h0c0-1.44,0-2.89,0-4.33,0-1.73,0-1.29-1.48-1.72a1.35,1.35,0,0,0-.29,0l-5.72-.6-3.3-.36c-1.23-.15-2.47-.34-3.7-.49l-2.58-.3c-1.19-.13-2.39-.23-3.58-.37s-2.47-.34-3.71-.49c-.86-.11-1.71-.24-2.57-.29-.68,0-1.34-.16-2-.26a1.43,1.43,0,0,1-1.29-1.17,5.52,5.52,0,0,1,1.86.08,19.23,19.23,0,0,0,3.28.41c2.1.18,4.18.56,6.28.7,1.63.11,3.25.31,4.85.56,1.1.17,2.2.23,3.29.36,1.24.14,2.46.34,3.7.47.8.09,1.62.1,2.42.15a38,38,0,0,0,4-1.4.69.69,0,0,0,.46-.67l0-1.14c0-1.87.05-3.73.07-5.6,1.44,0,2.87.08,4.32.2a41.5,41.5,0,0,0,4.74.39,1.89,1.89,0,0,1,.71.06c1,.33,2,.1,3,.37.05,0,.15-.1.22-.15a26.89,26.89,0,0,0,3.42-1.14.89.89,0,0,0,.69-.95c0-.38,0-.77,0-1.16l.09-6.06a15.69,15.69,0,0,1,2.28.14,8.47,8.47,0,0,0,2.56.1c.37-.1.74-.18,1.1-.29l2.45-.83a.62.62,0,0,0,.47-.63c0-.39,0-.77,0-1.15,0-2.2,0-4.4.08-6.6a27.86,27.86,0,0,1,3.3.09,14.72,14.72,0,0,0,2.29.18c1.77-.05,3.52.42,5.3.32a1.23,1.23,0,0,1,.42.07,12.22,12.22,0,0,0,3.72.12l2.76-.86a.76.76,0,0,0,.61-.85c0-.19,0-.39,0-.58q0-6.53.08-13.05l.09-15.36,2.46,0a5,5,0,0,1,1.16.05c1.85.48,3.64,0,5.43-.33.58-.1.66-.23.69-.76s0-1,0-1.45q0-18.12,0-36.25a4.18,4.18,0,0,1,.14-1.72c.75.22,1.07.93,1.58,1.43a3.85,3.85,0,0,1,1.18,3c-.05,11.31,0,22.62,0,33.93,0,.44,0,.87,0,1.31a.56.56,0,0,0,.29.46q0,9.19,0,18.37c0,.24,0,.48,0,.72s-.09.42-.29.46a10.44,10.44,0,0,1-3.07.69q0-5.64,0-11.28c0-1.4,0-2.8,0-4.2,0-.92-.11-1-1-1-.72,0-1.45,0-2.17,0a11.34,11.34,0,0,1-2-.15c-1.35-.25-1.53.13-1.53,1.35,0,4.68,0,9.36,0,14a3.44,3.44,0,0,0,0,.72C198.59,184.32,198.83,184.39,199.08,184.4Z"/><path class="cls-2" d="M70.75,127.22c.13-.38.44-.46.8-.47.91,0,1.82,0,2.72-.06l1.73-.06a4.71,4.71,0,0,0,1.63-.08,1.85,1.85,0,0,1,.14.14c0,.33,0,.67,0,1q0,16,0,32.06c0,.29,0,.58,0,.87a.54.54,0,0,0,.56.55c.43,0,.87,0,1.3,0,1.88,0,3.76,0,5.63,0-.64.28-.54.82-.54,1.3v11.17c0,1.35,0,2.71,0,4.06,0,1.13,0,1.16,1.12,1.18a40,40,0,0,1,4.76.22c1.05.15,1.12.25,1.11,1.23,0,.34,0,.68,0,1,0,2.08,0,4.16,0,6.24,0,.63.14.77.78.78a43.44,43.44,0,0,1,5.34.29c1.1.13,1.12.08,1.14,1.19v.58c0,2.41,0,4.83,0,7.25l-.13.12c-1.47-.06-2.91-.45-4.39-.38a1.18,1.18,0,0,1-.42,0,8.79,8.79,0,0,0-3-.2,2.45,2.45,0,0,0-1.11-.06,3.6,3.6,0,0,0-1.25-.24c-1.13-.1-2.27-.19-3.4-.3-.67-.06-.67-.07-.75-.77l-.06-.7a3.35,3.35,0,0,0,.13-.69q0-6.64,0-13.27a4.88,4.88,0,0,0-.15-1.14c-.24-1-.34-1-1.53-1.08l-1.7-.08a16.21,16.21,0,0,0-3.48-.3l-.18-.8a4.2,4.2,0,0,0,.11-.71v-13.4a4.16,4.16,0,0,0-.19-1.27c-.29-.9-.57-1.2-1.52-1.23a22.08,22.08,0,0,0-3.45,0l-1.23-.05c-.33,0-.45-.25-.54-.52,0-.43.07-.86.07-1.29V128.37C70.81,128,70.77,127.61,70.75,127.22Z"/><path class="cls-2" d="M113.92,72.63c0-.57.06-1.15.08-1.72a.53.53,0,0,1,.52-.56c.77-.08,1.53-.18,2.29-.28l2.13-.32c.43,0,.87,0,1.3,0,1.63-.17,3.26-.37,4.89-.56l5.6-.64,6.32-.77q3.45-.42,6.9-.8a8,8,0,0,1,2.58-.09c0,2.31,0,4.63,0,6.94,0,2.77-.41,2.38,2.52,2.28a2.88,2.88,0,0,0,1.9-.55l2.56,0,4.28-.36a.29.29,0,0,0,.37-.07l5.11-.51a1.36,1.36,0,0,1,1.32.32c-.34.11-.63.25-.63.68s0,.77,0,1.16l0,7.81c-1.89-.11-3.74.4-5.63.35l-.14,0c-1.86.31-3.74.32-5.61.52-.62.06-1.24.06-1.87.18-1.13.23-2.31.07-3.45.34-.48.12-.72-.15-.75-.63s0-.87,0-1.31c0-2.27,0-4.54,0-6.82,0-.63-.16-.81-.77-.77a39,39,0,0,0-4.32.39c-1.33.24-2.68.19-4,.44s-2.88.25-4.32.37c-.19,0-.38,0-.57.07-1.39.16-2.77.33-4.16.47s-2.7.14-4,.38-2.77.28-4.16.45c-2,.25-4,.33-6,.67l-.13-.12C114,77.26,114.08,74.94,113.92,72.63Z"/><path class="cls-2" d="M146.34,221.11c-.8-.05-1.62-.06-2.42-.15-1.24-.13-2.46-.33-3.7-.47-1.09-.13-2.19-.19-3.29-.36-1.6-.25-3.22-.45-4.85-.56-2.1-.14-4.18-.52-6.28-.7a19.23,19.23,0,0,1-3.28-.41,5.52,5.52,0,0,0-1.86-.08,3.72,3.72,0,0,0-1.74-.26c-1.41-.18-2.82-.35-4.23-.55-.67-.09-.67-.12-.69-.82,0-.42,0-.85,0-1.27q.14-2.89,0-5.77l.12-1.3c1.94-.13,3.83.41,5.76.35a3.49,3.49,0,0,1,.43.07c1.43.16,2.85.39,4.29.47a41.42,41.42,0,0,0,4.16.35,2.8,2.8,0,0,1,.28.06c1.38.16,2.76.36,4.15.46s2.68.24,4,.4,2.78.19,4.15.45c1.22.23,2.49.23,3.73.34a2.14,2.14,0,0,1,.43.07.91.91,0,0,1,.84,1c0,.44,0,.87,0,1.31C146.31,216.19,146.33,218.65,146.34,221.11Z"/><path class="cls-3" d="M208.6,164.37a.56.56,0,0,1-.29-.46c0-.44,0-.87,0-1.31,0-11.31,0-22.62,0-33.93a3.85,3.85,0,0,0-1.18-3c-.51-.5-.83-1.21-1.59-1.43l-.15-.52a2.13,2.13,0,0,1,1.21-.28c.66,0,1.31,0,2,0h6.7c0,.58,0,1.16,0,1.74q0,18.74,0,37.48c0,.63,0,1.25.06,1.88a16.75,16.75,0,0,1-4.47-.1A14.79,14.79,0,0,0,208.6,164.37Z"/><path class="cls-3" d="M146.53,66.85a8,8,0,0,0-2.58.09q-3.45.38-6.9.8l-6.32.77-5.6.64c-1.63.19-3.26.39-4.89.56-.43.05-.87,0-1.3,0,0-1.83,0-3.67,0-5.51,0-.24,0-.48,0-.72,0-.52.17-.67.73-.7s1.34-.18,2-.23c1.2-.11,2.37-.41,3.59-.41a19.57,19.57,0,0,0,2.72-.32c2-.31,4.08-.65,6.14-.83,1.77-.16,3.52-.49,5.29-.73,1.14-.15,2.29-.25,3.44-.39s2.38-.43,3.57-.47c1.49-.07,2.95-.57,4.46-.38l0,9.25h0l-1.62-.54A18.52,18.52,0,0,0,146.53,66.85Z"/><path class="cls-3" d="M172,212.26a5.59,5.59,0,0,1-.56-.12.81.81,0,0,1-.63-.85c0-1.59,0-3.19,0-4.78,0-.43.25-.65.65-.55a10.44,10.44,0,0,0,2.73.19c1.26,0,2.48.33,3.74.31,1.94,0,1.83.16,1.84-1.77,0-2.12,0-4.24,0-6.37,0-.33,0-.67,0-1a.38.38,0,0,1,.37-.37,5.77,5.77,0,0,1,1.44,0,9.78,9.78,0,0,0,1.87.17c2.3.09,4.61.27,6.9.53a20.16,20.16,0,0,0,2.46.06,8.44,8.44,0,0,1,2,.26c.54.14.63.21.63.79,0,1.79,0,3.57,0,5.36a.9.9,0,0,1-1.06.22,7.71,7.71,0,0,0-2.57-.22c-.74,0-1.42-.25-2.14-.3l-.72,0a10.23,10.23,0,0,1-2.13-.24.53.53,0,0,0-.67.55c0,.24,0,.48,0,.72,0,2.83,0,5.67,0,8.5a10.05,10.05,0,0,1-3.28-.21,2,2,0,0,0-.43,0,40.67,40.67,0,0,1-5.83-.57,5.63,5.63,0,0,0-.58,0,12.44,12.44,0,0,1-2.85-.25A5,5,0,0,0,172,212.26Z"/><path class="cls-3" d="M118.92,218.12a3.72,3.72,0,0,1,1.74.26,1.43,1.43,0,0,0,1.29,1.17c.66.1,1.32.22,2,.26.86.05,1.71.18,2.57.29,1.24.15,2.47.34,3.71.49s2.39.24,3.58.37l2.58.3c1.23.15,2.47.34,3.7.49l3.3.36,5.72.6a1.35,1.35,0,0,1,.29,0c1.46.43,1.49,0,1.48,1.72,0,1.44,0,2.89,0,4.33a23.57,23.57,0,0,1-4.74-.38c-1.24-.13-2.48-.32-3.71-.49l-3.57-.48c-1.1-.14-2.2-.25-3.29-.39l-3.57-.45-3.44-.42c-1-.12-2-.18-3-.39-.62-.13-1.24-.13-1.86-.21-1.43-.17-2.85-.39-4.28-.6a.51.51,0,0,1-.43-.5c0-.39,0-.77,0-1.16Z"/><path class="cls-2" d="M85.26,91.24l4.08-.33c1.28-.1,2.57-.15,3.84-.3,1.89-.22,3.81-.21,5.69-.58l.12.12c0,.53,0,1.06,0,1.59,0,2.12,0,4.24,0,6.37,0,.9-.09.92-1,1a37.27,37.27,0,0,1-4.6.3,3.43,3.43,0,0,0-.85.14c-.74.18-.79.23-.8,1,0,2,0,4,0,5.93,0,.39,0,.77,0,1.16,0,.77-.2,1-.91,1a5.62,5.62,0,0,1-.58,0,33.34,33.34,0,0,0-5.47.31l-.15-.15c0-.19,0-.39,0-.58,0-5,0-9.9,0-14.85a4.41,4.41,0,0,0-.11-.7c.1-.45,0-.94.21-1.36A.65.65,0,0,0,85.26,91.24Z"/><path class="cls-3" d="M199.09,103.43a22.06,22.06,0,0,0,4.29-.24,3.76,3.76,0,0,1,1.85.08c0,.62,0,1.25,0,1.87q0,8.24,0,16.46c0,.63,0,1.25,0,1.88a22.34,22.34,0,0,0-5.77-.36h-.29c-.44,0-.61-.17-.63-.61,0-.92,0-1.84-.07-2.75a3.84,3.84,0,0,0,.11-1.43c0-3.31,0-6.63,0-9.94a6.14,6.14,0,0,0,0-.86,1.34,1.34,0,0,0-.23-.66c-.53-.68-1.09-1.34-1.64-2a1,1,0,0,0-.74-.39l-.26-.74A29.5,29.5,0,0,1,199.09,103.43Z"/><path class="cls-2" d="M104.11,207.38l-3-.36-1.72-.22a.47.47,0,0,1-.45-.47l-.06-1.3,0-5.51,0-1.68a1.59,1.59,0,0,1,.13-.13,19.53,19.53,0,0,0,3.74.3,1.56,1.56,0,0,1,.43,0,27.67,27.67,0,0,0,4.73.46,35.17,35.17,0,0,0,5,.4c.91,0,1.13.21,1.13,1.1,0,2.75,0,5.5,0,8.25-1.86-.05-3.69-.32-5.54-.54a14.73,14.73,0,0,0-3-.17A2.19,2.19,0,0,0,104.11,207.38Z"/><path class="cls-2" d="M98.87,82.81c.12-.52-.18-1.15.19-1.54s1.09-.25,1.65-.34a21,21,0,0,0,3.43-.44c.52,0,1,0,1.56,0,2.75-.28,5.5-.59,8.24-.89l.13.12c0,1.83,0,3.66,0,5.48,0,1,0,2,0,3,0,.53-.16.71-.7.7-1.54,0-3,.44-4.59.34a2.48,2.48,0,0,0-.72.05,35.24,35.24,0,0,1-4.72.44c-1.41.19-2.86.29-4.29.42L98.87,90Z"/><path class="cls-3" d="M172,75.57a30.1,30.1,0,0,0,3.29-.19c1.43-.13,2.85-.38,4.29-.41a35.93,35.93,0,0,0,4.13-.44,10.13,10.13,0,0,1,2.58,0l-.06,9.8h0L182.53,83a.25.25,0,0,0-.36-.12l-10.38.88a.3.3,0,0,0-.37.06l-.48,0c0-1-.05-2-.07-3a3.41,3.41,0,0,0-.78-2.27c-.28-.33-.54-.68-.82-1a4.4,4.4,0,0,1-.82-1.3,4.83,4.83,0,0,1,2-.39A3.27,3.27,0,0,0,172,75.57Z"/><path class="cls-3" d="M189.82,84l4.84-.5c.34,0,.68-.09.9.25a5.79,5.79,0,0,1,0,.72q0,8.81,0,17.61,0,.44,0,.87a.79.79,0,0,1-.37.58l-2.16-.44a.29.29,0,0,0-.4-.15l-.52-.07-.28-.15a.23.23,0,0,0-.38,0l-2.24.06a58.36,58.36,0,0,1-.28-6.34c0-2.61,0-5.21,0-7.82a1.79,1.79,0,0,0-.16-1.12,14.18,14.18,0,0,0-2.49-3,.24.24,0,0,1,0-.26h0a5.38,5.38,0,0,0,1.14-.08A8.15,8.15,0,0,1,189.82,84Z"/><path class="cls-1" d="M215.38,164.55c0-.63-.06-1.25-.06-1.88q0-18.73,0-37.48c0-.58,0-1.16,0-1.74a10.51,10.51,0,0,1,2.44.22c.53.1.61.21.64.79,0,.34,0,.68,0,1v36.94c0,1.87.19,1.78-1.76,2l-.14,0a.59.59,0,0,0-.66.15Z"/><path class="cls-2" d="M77.54,110.33c.06-.34.11-.67.16-1a.22.22,0,0,0,.29-.1l2.06-.08a22,22,0,0,0,4.51-.33l.15.15c0,.48,0,1,0,1.44q0,7.06,0,14.14c0,.43,0,.87,0,1.3a.53.53,0,0,1-.56.53c-1.25,0-2.48.32-3.73.27-.87,0-1.73,0-2.6,0a1.85,1.85,0,0,0-.14-.14c0-.2,0-.39,0-.58q0-7.32,0-14.64A2.13,2.13,0,0,0,77.54,110.33Z"/><path class="cls-3" d="M157.79,75.18l-4.28.36c0-.86-.06-1.72,0-2.57a2.83,2.83,0,0,0-.9-2.56c-.22-.17-.32-.47-.51-.68s-.54-.79-1.05-.91l-.16-.51h0c1.28-.13,2.56-.25,3.84-.39a1.59,1.59,0,0,0,.4-.18,27.9,27.9,0,0,0,5.16-.47,5.9,5.9,0,0,1,.72-.09,38.77,38.77,0,0,0,5.16-.56,11.8,11.8,0,0,1,1.88,0v6.44c0,.72,0,1.44,0,2.15a.76.76,0,0,1-.38.72l-1.34-.39a.27.27,0,0,0-.36-.17l-1.34-.45a1.36,1.36,0,0,0-1.32-.32l-5.11.51A.26.26,0,0,0,157.79,75.18Z"/><path class="cls-3" d="M199.08,184.4c-.25,0-.49-.08-.56-.36a3.44,3.44,0,0,1,0-.72c0-4.67,0-9.35,0-14,0-1.22.18-1.6,1.53-1.35a11.34,11.34,0,0,0,2,.15c.72,0,1.45,0,2.17,0,.88,0,1,.11,1,1,0,1.4,0,2.8,0,4.2q0,5.64,0,11.28a19,19,0,0,1-5-.14A7.2,7.2,0,0,0,199.08,184.4Z"/><path class="cls-3" d="M155.12,220.11a2.71,2.71,0,0,1-.29,0c-1.32-.21-1.37-.26-1.37-1.54s0-2.32,0-3.48.07-1.11,1.19-1.09a11.13,11.13,0,0,1,2.3.21c.89.2,1.82.11,2.73.28,1.27.24,2.58.25,3.88.37a35.82,35.82,0,0,0,3.88.33.54.54,0,0,1,.55.56c0,.68,0,1.35,0,2,0,1.16,0,2.32,0,3.48a18,18,0,0,1-3.87-.22c-1.13-.23-2.31-.15-3.43-.39-1.37-.28-2.78-.13-4.14-.49A6.9,6.9,0,0,0,155.12,220.11Z"/><path class="cls-3" d="M113.94,79.57c-2.74.3-5.49.61-8.24.89-.51.06-1,0-1.56,0,0-1.87,0-3.75,0-5.62,0-.24,0-.48,0-.72a.54.54,0,0,1,.51-.58l3-.33c1.13-.15,2.26-.35,3.4-.47,1-.09,1.91-.1,2.87-.14C114.08,74.94,114,77.26,113.94,79.57Z"/><path class="cls-1" d="M205.14,123.48c0-.63,0-1.25,0-1.88q0-8.22,0-16.46c0-.62,0-1.25,0-1.87a11.67,11.67,0,0,1,2.79.65.67.67,0,0,1,.56.73c0,.14,0,.29,0,.43q0,9.19,0,18.37c-.66,0-1.31,0-2,0a2.13,2.13,0,0,0-1.21.28Z"/><path class="cls-1" d="M195.19,103.52a.79.79,0,0,0,.37-.58q0-.43,0-.87,0-8.8,0-17.61a5.79,5.79,0,0,0,0-.72,1.86,1.86,0,0,1,1.22.25c.74.29,1.48.61,2.21.91a.4.4,0,0,0,.08.26q0,9.14,0,18.27a29.5,29.5,0,0,0-3.51.3A.36.36,0,0,1,195.19,103.52Z"/><path class="cls-3" d="M98.87,82.81V90c-1.88.37-3.8.36-5.69.58-1.27.15-2.56.2-3.84.3a1.25,1.25,0,0,0,.59-1.08c0-1.44,0-2.89,0-4.33,0-.39,0-.77,0-1.16s.16-.59.5-.59c1.06,0,2.08-.34,3.15-.35A30.38,30.38,0,0,0,98.87,82.81Z"/><path class="cls-3" d="M104.11,207.38a2.19,2.19,0,0,1,1.36.16,2,2,0,0,0,2.31,1.52,4.23,4.23,0,0,1,.87,0l5.29.61q.15,2.88,0,5.77l-3.84-.57a3.45,3.45,0,0,0-.72,0c-1.31.08-2.56-.37-3.87-.35a3.61,3.61,0,0,1-.83-.21.64.64,0,0,1-.55-.72c0-1.21,0-2.41,0-3.62C104.13,209.12,104.12,208.25,104.11,207.38Z"/><path class="cls-1" d="M167.63,75.93a.76.76,0,0,0,.38-.72c0-.71,0-1.43,0-2.15V66.62c.62-.1,1.09.3,1.62.5.77.28,1.71.42,2.18,1s.18,1.67.2,2.52c0,1.63,0,3.27,0,4.9a3.27,3.27,0,0,1-1.55.28,4.83,4.83,0,0,0-2,.39,4.4,4.4,0,0,0,.82,1.3c.28.33.54.68.82,1a3.41,3.41,0,0,1,.78,2.27c0,1,0,2,.07,3a17.33,17.33,0,0,1-2.79,0c0-.53-.06-1.06-.06-1.59,0-1.69,0-3.38,0-5.06A1.56,1.56,0,0,0,167.63,75.93Z"/><path class="cls-3" d="M98.88,199.52l0,5.51c-1.67-.11-3.33-.35-5-.55-1-.12-2-.22-3-.31s-.94-.35-.94-1.1v-2.6c0-1.11,0-2.21,0-3.32a2.45,2.45,0,0,1,1.11.06c.09.5.48.82.72,1.24a.89.89,0,0,0,.85.43c.91,0,1.81.2,2.71.26A28.47,28.47,0,0,1,98.88,199.52Z"/><path class="cls-4" d="M70.75,127.22c0,.39.06.77.06,1.15v30.95c0,.43,0,.86-.07,1.29l-.43,0c-.39,0-.65-.16-.67-.58,0-.24,0-.48,0-.73v-30.5c0-.14,0-.29,0-.43C69.66,127.48,69.72,127.42,70.75,127.22Z"/><path class="cls-1" d="M155.11,67.74a1.59,1.59,0,0,1-.4.18c-1.28.14-2.56.26-3.84.39l0-9.25a20.46,20.46,0,0,1,3.84,1.52c.35.15.39.5.39.85Q155.12,64.6,155.11,67.74Z"/><path class="cls-1" d="M186.3,213.4c0-2.83,0-5.67,0-8.5,0-.24,0-.48,0-.72a.53.53,0,0,1,.67-.55,10.23,10.23,0,0,0,2.13.24l.72,0c0,2.46,0,4.92,0,7.38a1.05,1.05,0,0,1-.81,1.18A17.52,17.52,0,0,1,186.3,213.4Z"/><path class="cls-1" d="M189.82,84a8.15,8.15,0,0,0-2.41.21,5.38,5.38,0,0,1-1.14.08l.06-9.8c.94.38,1.87.76,2.82,1.12a.92.92,0,0,1,.65,1c0,1.2,0,2.41,0,3.62S189.81,82.73,189.82,84Z"/><path class="cls-3" d="M84.56,108.81a22,22,0,0,1-4.51.33c.28-.27.63-.2,1-.22s.87,0,1.31-.07a.61.61,0,0,0,.62-.66c0-.38,0-.77,0-1.16V94.85c0-.38,0-.77,0-1.16a.61.61,0,0,1,.55-.71,5.9,5.9,0,0,0,1-.3,4.41,4.41,0,0,1,.11.7c0,5,0,9.9,0,14.85C84.6,108.42,84.57,108.62,84.56,108.81Z"/><path class="cls-3" d="M82.92,179c1.19.07,1.29.12,1.53,1.08a4.88,4.88,0,0,1,.15,1.14q0,6.63,0,13.27a3.35,3.35,0,0,1-.13.69c-1.49-.1-1.5.12-1.5-1.55,0-4.3,0-8.6,0-12.89C83,180.12,82.94,179.54,82.92,179Z"/><path class="cls-3" d="M72.51,161.18a22.08,22.08,0,0,1,3.45,0c1,0,1.23.33,1.52,1.23a4.16,4.16,0,0,1,.19,1.27v13.4a4.2,4.2,0,0,1-.11.71c-1.25-.22-1.26-.22-1.26-1.53q0-6.58,0-13.16c0-1.73.06-1.61-1.68-1.66C73.91,161.41,73.16,161.63,72.51,161.18Z"/><path class="cls-3" d="M77.54,110.33a2.13,2.13,0,0,1,.13,1q0,7.32,0,14.64c0,.19,0,.38,0,.58a4.71,4.71,0,0,1-1.63.08,2.56,2.56,0,0,0,.29-1.67q0-6.19,0-12.4v-.86C76.29,110.27,76.33,110.47,77.54,110.33Z"/><path class="cls-3" d="M77.74,178.58a16.21,16.21,0,0,1,3.48.3,16.7,16.7,0,0,1-3,0A.62.62,0,0,1,77.74,178.58Z"/><path class="cls-3" d="M215.81,164.55a.59.59,0,0,1,.66-.15A.5.5,0,0,1,215.81,164.55Z"/><path class="cls-3" d="M85.26,91.24a.65.65,0,0,1-.56.08A.49.49,0,0,1,85.26,91.24Z"/><path class="cls-3" d="M78,109.22a.22.22,0,0,1-.29.1A.2.2,0,0,1,78,109.22Z"/><path class="cls-3" d="M199.07,85.16a.4.4,0,0,1-.08-.26C199.23,84.93,199.26,85,199.07,85.16Z"/><path class="cls-3" d="M150.86,228.81l.31,0C151.06,229,151,229.05,150.86,228.81Z"/><path class="cls-5" d="M77.77,126.69c.87,0,1.73-.09,2.6,0,1.25,0,2.48-.27,3.73-.27a.53.53,0,0,0,.56-.53c0-.43,0-.87,0-1.3q0-7.07,0-14.14c0-.48,0-1,0-1.44a33.34,33.34,0,0,1,5.47-.31,5.62,5.62,0,0,0,.58,0c.71-.06.88-.25.91-1,0-.39,0-.77,0-1.16,0-2,0-4,0-5.93,0-.73.06-.78.8-1a3.43,3.43,0,0,1,.85-.14,37.27,37.27,0,0,0,4.6-.3c.92-.09,1-.11,1-1,0-2.13,0-4.25,0-6.37,0-.53,0-1.06,0-1.59,1.43-.13,2.88-.23,4.29-.42a35.24,35.24,0,0,0,4.72-.44,2.48,2.48,0,0,1,.72-.05c1.55.1,3-.36,4.59-.34.54,0,.69-.17.7-.7,0-1,0-2,0-3,0-1.82,0-3.65,0-5.48,2-.34,4-.42,6-.67,1.39-.17,2.78-.2,4.16-.45s2.69-.25,4-.38,2.77-.31,4.16-.47c.19,0,.38-.06.57-.07,1.44-.12,2.91-.11,4.32-.37s2.69-.2,4-.44a39,39,0,0,1,4.32-.39c.61,0,.77.14.77.77,0,2.28,0,4.55,0,6.82,0,.44,0,.87,0,1.31s.27.75.75.63c1.14-.27,2.32-.11,3.45-.34.63-.12,1.25-.12,1.87-.18,1.87-.2,3.75-.21,5.61-.52l.14,0c1.89,0,3.74-.46,5.63-.35h0c0,3,0,5.9,0,8.85,0,1,.08,1,1,.89.62-.07,1.25-.09,1.88-.12a25.46,25.46,0,0,0,2.74-.21,18.49,18.49,0,0,1,2.89-.1.46.46,0,0,1,.48.45c0,.43.05.86.05,1.3,0,2.12,0,4.25,0,6.38,0,.38,0,.77,0,1.16a.52.52,0,0,0,.53.56,20.16,20.16,0,0,0,2.46-.09,10.58,10.58,0,0,1,1.58-.16,22.07,22.07,0,0,0,3.89-.27c.74-.12.82-.17.85-.88,0-.39,0-.78,0-1.16V86.22c0-1,0-2,0-3l.3-.17,3.73,1.28a.24.24,0,0,0,0,.26c0,.19-.05.38-.05.58l.09,17.68a1.44,1.44,0,0,1-1.08.29c-.73,0-1.45,0-2.18.05-.41,0-.57.22-.61.65,0,.25,0,.49,0,.73v17.4c0,.33,0,.67,0,1a.54.54,0,0,0,.57.54c.38,0,.77,0,1.16,0l5.65,0c2.11,0,2-.21,2,1.91v37c0,.39,0,.77,0,1.16s-.2.59-.64.62-.78,0-1.16,0c-2,0-4,0-5.95,0s-1.82.16-1.82,1.87q0,8,0,16.09c0,.58,0,1.16,0,1.74s-.16.8-.9.79a2.45,2.45,0,0,1-.72,0,8.75,8.75,0,0,0-2.44-.23,11.34,11.34,0,0,1-3-.23,3.14,3.14,0,0,0-.87,0c-1.26,0-1.3,0-1.31,1.3,0,2.94,0,5.89-.05,8.84a13.29,13.29,0,0,0-3.44-.31,5,5,0,0,1-1.16-.07,15,15,0,0,0-3.6-.21c-.59,0-.76.17-.76.8,0,3,0,6.08,0,9.12a3.46,3.46,0,0,0-1-.28c-1.35,0-2.68-.29-4-.31-1.64,0-3.24-.46-4.88-.36a.32.32,0,0,1-.14,0,9,9,0,0,0-2.73-.26,7,7,0,0,1-1.57-.16,9,9,0,0,0-2.59-.1c-.34,0-.5.24-.53.57a2.64,2.64,0,0,0,0,.29c0,2.55,0,5.11,0,7.66,0,.82.23,1.1,1,1.09,1,0,1.9.32,2.87.31a.91.91,0,0,1,.63.31c0,1.87,0,3.73-.07,5.6l0,1.14a.69.69,0,0,1-.46.67,38,38,0,0,1-4,1.4c0-2.46,0-4.92,0-7.38,0-.44,0-.87,0-1.31a.91.91,0,0,0-.84-1,2.14,2.14,0,0,0-.43-.07c-1.24-.11-2.51-.11-3.73-.34-1.37-.26-2.77-.28-4.15-.45s-2.67-.31-4-.4-2.77-.3-4.15-.46a2.8,2.8,0,0,0-.28-.06,41.42,41.42,0,0,1-4.16-.35c-1.44-.08-2.86-.31-4.29-.47a3.49,3.49,0,0,0-.43-.07c-1.93.06-3.82-.48-5.76-.35l-.08-.16c0-2.75,0-5.5,0-8.25,0-.89-.22-1.14-1.13-1.1a35.17,35.17,0,0,1-5-.4,27.67,27.67,0,0,1-4.73-.46,1.56,1.56,0,0,0-.43,0,19.53,19.53,0,0,1-3.74-.3c0-2.42,0-4.84,0-7.25v-.58c0-1.11,0-1.06-1.14-1.19a43.44,43.44,0,0,0-5.34-.29c-.64,0-.77-.15-.78-.78,0-2.08,0-4.16,0-6.24,0-.34,0-.68,0-1,0-1-.06-1.08-1.11-1.23a40,40,0,0,0-4.76-.22c-1.09,0-1.12,0-1.12-1.18,0-1.35,0-2.71,0-4.06V162.5c0-.48-.1-1,.54-1.3-1.87,0-3.75,0-5.63,0-.43,0-.87,0-1.3,0a.54.54,0,0,1-.56-.55c0-.29,0-.58,0-.87q0-16,0-32.06C77.73,127.36,77.75,127,77.77,126.69Zm71.31-20.83c-.84-.19-1.68-.41-2.52-.57a3.13,3.13,0,0,0-2.11.13l-5.21.27c-2.36.13-4.73.24-7.09.38l-14.61.85c-1,.06-2,.16-3,.23-.34,0-.54.17-.54.53s0,.67,0,1c0,2.08,0,4.16,0,6.24,0,1.27.27,1.43-1.42,1.49h-.72c-1.59.08-3.19.14-4.78.24-.6,0-.67.13-.69.68,0,.34,0,.68,0,1v33.06c0,.34,0,.68,0,1s.13.6.59.62.67,0,1,0l4.79.08c1.22,0,1.22,0,1.23,1.33v6.38c0,.34,0,.68,0,1a.44.44,0,0,0,.45.46l1.74.08,4.93.18c.59,0,.68.12.7.66,0,.38,0,.77,0,1.16q0,7.53,0,15.08c0,.39,0,.77,0,1.16s.12.55.5.57l4.34.27c2.6.15,5.2.32,7.81.44a16.14,16.14,0,0,0,3.61.07c1.22-.2,2.45-.39,3.67-.61.58-.1.69-.27.73-.88,0-.24,0-.48,0-.72,0-2.92,0-5.84,0-8.77.13-2.58,0-5.16,0-7.74a11.07,11.07,0,0,1,2.3,0,5.22,5.22,0,0,0,1.72-.07,10.85,10.85,0,0,0,2.67-.25l.29,0c1.42,0,1.43,0,1.43-1.45,0-2.55,0-5.1,0-7.65a15.33,15.33,0,0,1,2.71,0c.46,0,1,.19,1.38-.15h0l2.89-.11c1.45-.06,1.41,0,1.41-1.49q0-17.7,0-35.4c0-1.17.23-1.53-1.36-1.62-.29,0-.57-.12-.86-.15-1.19-.11-2.34-.64-3.57-.39a.19.19,0,0,0-.27.13,9.56,9.56,0,0,1-2.33,0c0-2.45,0-4.9,0-7.34,0-1.28,0-1.17-1.22-1.51A1.84,1.84,0,0,0,149.08,105.86Z"/><path class="cls-2" d="M172.88,194.22c0-2.95,0-5.9.05-8.84,0-1.25,0-1.28,1.31-1.3a3.14,3.14,0,0,1,.87,0,11.34,11.34,0,0,0,3,.23,8.75,8.75,0,0,1,2.44.23,2.45,2.45,0,0,0,.72,0c.74,0,.85-.08.9-.79s0-1.16,0-1.74q0-8,0-16.09c0-1.71-.14-1.88,1.82-1.87s4,0,5.95,0c.38,0,.77,0,1.16,0s.6-.19.64-.62,0-.77,0-1.16v-37c0-2.12.13-1.92-2-1.91l-5.65,0c-.39,0-.78,0-1.16,0a.54.54,0,0,1-.57-.54c0-.34,0-.68,0-1v-17.4c0-.24,0-.48,0-.73,0-.43.2-.63.61-.65.73,0,1.45,0,2.18-.05a1.44,1.44,0,0,0,1.08-.29h2.9l2.24-.06.38,0,.28.15q0,9.48,0,19c0,.24,0,.49,0,.73s.16.57.51.58c.82,0,1.64,0,2.46,0a.45.45,0,0,0,.46-.46c0-.53,0-1.06,0-1.59a42.08,42.08,0,0,1,.07-4.63,1,1,0,0,1,.78.74,7.15,7.15,0,0,0,1.13,2.13,1,1,0,0,0,.85.43c0,.91,0,1.83.07,2.75,0,.44.19.59.63.61h.29a22.34,22.34,0,0,1,5.77.36l.27.27.15.52a4.35,4.35,0,0,0-.13,1.72q0,18.14,0,36.25c0,.49,0,1,0,1.45s-.11.66-.69.76c-1.79.32-3.58.81-5.43.33a5,5,0,0,0-1.16-.05l-2.46,0h-2c-1.62,0-1.57-.07-1.57,1.58l0,27.68c0,.48,0,1,0,1.44a12.22,12.22,0,0,1-3.72-.12,1.23,1.23,0,0,0-.42-.07c-1.78.1-3.53-.37-5.3-.32a14.72,14.72,0,0,1-2.29-.18,27.86,27.86,0,0,0-3.3-.09,1.66,1.66,0,0,0-1.1-.28l-3.05,0Z"/><path class="cls-2" d="M151,212.3a.91.91,0,0,0-.63-.31c-1,0-1.89-.32-2.87-.31-.77,0-1-.27-1-1.09,0-2.55,0-5.11,0-7.66a2.64,2.64,0,0,1,0-.29c0-.33.19-.56.53-.57a9,9,0,0,1,2.59.1,7,7,0,0,0,1.57.16,9,9,0,0,1,2.73.26.32.32,0,0,0,.14,0c1.64-.1,3.24.33,4.88.36,1.34,0,2.67.31,4,.31a3.46,3.46,0,0,1,1,.28h0v9.61c-.07.05-.17.16-.22.15-1-.27-2,0-3-.37a1.89,1.89,0,0,0-.71-.06,41.5,41.5,0,0,1-4.74-.39C153.82,212.38,152.39,212.31,151,212.3Z"/><path class="cls-5" d="M192.13,195.38c0-.48,0-1,0-1.44l0-27.68c0-1.65,0-1.59,1.57-1.58h2L195.58,180q0,6.53-.08,13.05c0,.19,0,.39,0,.58a.76.76,0,0,1-.61.85Z"/><path class="cls-2" d="M163.92,203.55c0-3,0-6.08,0-9.12,0-.63.17-.81.76-.8a15,15,0,0,1,3.6.21,5,5,0,0,0,1.16.07,13.29,13.29,0,0,1,3.44.31l.07.07,0,9.81a8.47,8.47,0,0,1-2.56-.1,15.74,15.74,0,0,0-2.29-.14,5.46,5.46,0,0,0-1.8-.27c-.8,0-1.6,0-2.4,0Z"/><path class="cls-5" d="M173,204.1l0-9.81,3.05,0a1.66,1.66,0,0,1,1.1.28c0,2.2,0,4.4-.08,6.6,0,.38,0,.76,0,1.15a.62.62,0,0,1-.47.63l-2.45.83C173.72,203.92,173.35,204,173,204.1Z"/><path class="cls-5" d="M163.93,203.56c.8,0,1.6,0,2.4,0a5.46,5.46,0,0,1,1.8.27q0,3-.08,6.06c0,.39,0,.78,0,1.16a.89.89,0,0,1-.69.95,26.89,26.89,0,0,1-3.42,1.14C163.94,210,163.93,206.76,163.93,203.56Z"/><path class="cls-1" d="M98.88,199.52a28.47,28.47,0,0,0-3.56-.38c-.9-.06-1.8-.27-2.71-.26a.89.89,0,0,1-.85-.43c-.24-.42-.63-.74-.72-1.24a8.79,8.79,0,0,1,3,.2,1.18,1.18,0,0,0,.42,0c1.48-.07,2.92.32,4.39.38C98.85,198.4,98.86,199,98.88,199.52Z"/><path class="cls-5" d="M150.87,68.31c.06.17.11.34.16.51a1.74,1.74,0,0,0-.15,1c0,1.9,0,3.81.07,5.72a2.88,2.88,0,0,1-1.9.55c-2.93.1-2.51.49-2.52-2.28,0-2.31,0-4.63,0-6.94a18.52,18.52,0,0,1,2.72.92Z"/><path class="cls-5" d="M167.63,75.93a1.56,1.56,0,0,1,.42,1.33c0,1.68,0,3.37,0,5.06,0,.53,0,1.06.06,1.59a1.69,1.69,0,0,1-1.23.32,10.84,10.84,0,0,0-3,.33h0l0-7.81c0-.39,0-.77,0-1.16s.29-.57.63-.68l1.34.45a.27.27,0,0,0,.36.17Z"/><path class="cls-1" d="M151,75.52c0-1.91,0-3.82-.07-5.72a1.74,1.74,0,0,1,.15-1c.51.12.74.57,1.05.91s.29.51.51.68a2.83,2.83,0,0,1,.9,2.56c0,.85,0,1.71,0,2.57Z"/><path class="cls-1" d="M157.79,75.18a.26.26,0,0,1,.37-.07A.29.29,0,0,1,157.79,75.18Z"/><path class="cls-1" d="M114,208.25l.08.16-.12,1.3-5.29-.61a4.23,4.23,0,0,0-.87,0,2,2,0,0,1-2.31-1.52,14.73,14.73,0,0,1,3,.17C110.29,207.93,112.12,208.2,114,208.25Z"/><path class="cls-5" d="M195.62,116.45a42.08,42.08,0,0,0-.07,4.63c0,.53,0,1.06,0,1.59a.45.45,0,0,1-.46.46c-.82,0-1.64,0-2.46,0-.35,0-.5-.26-.51-.58s0-.49,0-.73q0-9.48,0-19l.52.07a.29.29,0,0,0,.4.15l2.16.44a.36.36,0,0,0,.39.21c.09.25.17.5.26.74a1.36,1.36,0,0,0-.26,1.08Q195.6,111,195.62,116.45Z"/><path class="cls-1" d="M195.62,116.45q0-5.45,0-10.9a1.36,1.36,0,0,1,.26-1.08,1,1,0,0,1,.74.39c.55.66,1.11,1.32,1.64,2a1.34,1.34,0,0,1,.23.66,6.14,6.14,0,0,1,0,.86c0,3.31,0,6.63,0,9.94a3.84,3.84,0,0,1-.11,1.43,1,1,0,0,1-.85-.43,7.15,7.15,0,0,1-1.13-2.13A1,1,0,0,0,195.62,116.45Z"/><path class="cls-2" d="M163.92,84.56a10.84,10.84,0,0,1,3-.33,1.69,1.69,0,0,0,1.23-.32,17.33,17.33,0,0,0,2.79,0l.48,0c.14.11.26.06.37-.06l10.38-.88.06.29c0,1,0,2,0,3v14.94c0,.38,0,.77,0,1.16,0,.71-.11.76-.85.88a22.07,22.07,0,0,1-3.89.27,10.58,10.58,0,0,0-1.58.16,20.16,20.16,0,0,1-2.46.09.52.52,0,0,1-.53-.56c0-.39,0-.78,0-1.16,0-2.13,0-4.26,0-6.38,0-.44,0-.87-.05-1.3a.46.46,0,0,0-.48-.45,18.49,18.49,0,0,0-2.89.1,25.46,25.46,0,0,1-2.74.21c-.63,0-1.26,0-1.88.12-.9.1-1,.07-1-.89C163.91,90.46,163.92,87.51,163.92,84.56Z"/><path class="cls-1" d="M182.23,83.18l-.06-.29a.25.25,0,0,1,.36.12Z"/><path class="cls-1" d="M171.79,83.77c-.11.12-.23.17-.37.06A.3.3,0,0,1,171.79,83.77Z"/><path class="cls-1" d="M189.21,102.8h-2.9l-.09-17.68c0-.2,0-.39.05-.58a14.18,14.18,0,0,1,2.49,3,1.79,1.79,0,0,1,.16,1.12c0,2.61,0,5.21,0,7.82A58.36,58.36,0,0,0,189.21,102.8Z"/><path class="cls-1" d="M191.83,102.71l-.38,0A.23.23,0,0,1,191.83,102.71Z"/><path class="cls-2" d="M193,103.08a.29.29,0,0,1-.4-.15A.29.29,0,0,1,193,103.08Z"/><path class="cls-2" d="M166.29,75.54a.27.27,0,0,1-.36-.17A.27.27,0,0,1,166.29,75.54Z"/><path class="cls-4" d="M146.48,163.17a5.22,5.22,0,0,1-1.72.07,11.07,11.07,0,0,0-2.3,0,27.52,27.52,0,0,0-3.85-.12c-.18-.1-.39-.18-.49,0a1.34,1.34,0,0,0-.08.56q0,9.12,0,18.24a16.14,16.14,0,0,1-3.61-.07c-2.61-.12-5.21-.29-7.81-.44l-4.34-.27c-.38,0-.49-.25-.5-.57s0-.77,0-1.16q0-7.55,0-15.08c0-.39,0-.78,0-1.16,0-.54-.11-.64-.7-.66l-4.93-.18-1.74-.08a.44.44,0,0,1-.45-.46c0-.33,0-.67,0-1v-6.38c0-1.3,0-1.31-1.23-1.33l-4.79-.08c-.34,0-.67,0-1,0s-.57-.14-.59-.62,0-.68,0-1V118.37c0-.34,0-.68,0-1,0-.55.09-.64.69-.68,1.59-.1,3.19-.16,4.78-.24h.72c1.69-.06,1.42-.22,1.42-1.49,0-2.08,0-4.16,0-6.24,0-.34,0-.67,0-1s.2-.51.54-.53c1-.07,2-.17,3-.23l14.61-.85c2.36-.14,4.73-.25,7.09-.38l5.21-.27,1.15.06c.74,0,.85.1.85.82,0,2.11,0,4.22,0,6.33a5.24,5.24,0,0,0,.1,1.58v.5c0,.21.1.26.29.2l4-.23a9.56,9.56,0,0,0,2.33,0l.11.06h.13c1.52.11,1.52.11,1.52,1.66,0,.68,0,1.35,0,2q0,17.64,0,35.29h0a20,20,0,0,0-4.09,0l-.55,0a1.45,1.45,0,0,0-.92,0h-2.27c-.27-.07-.52-.13-.57.26v.8a7.89,7.89,0,0,0-.09.85C146.46,158.13,146.47,160.65,146.48,163.17Zm-7.79-38.25c-.25,0-.49,0-.58.27a1.76,1.76,0,0,0-.07.56c0,2.64,0,5.27,0,7.91a2.08,2.08,0,0,0,0,.43.4.4,0,0,0,.41.34,4.19,4.19,0,0,0,.69-.13h.31a1.22,1.22,0,0,0,.39.14h5.86a.58.58,0,0,0,.48-.25,3.79,3.79,0,0,0,.11-1.42c0-1.86,0-3.73,0-5.59,0-.67,0-1.33-.07-2a.26.26,0,0,0,0-.37c-.2-.18-.45-.11-.68-.1Zm-16.93,1.13c.07-.36-.08-.58-.44-.57-2.22,0-4.44,0-6.66.08-.45,0-.57.16-.57.65,0,2.61,0,5.21,0,7.82,0,.56.1.66.7.67,2.12,0,4.24,0,6.36,0a.53.53,0,0,0,.5-.22,1.59,1.59,0,0,0,.12-.41Q121.78,130.05,121.76,126.05Z"/><path class="cls-1" d="M155,153.68q0-17.66,0-35.29c0-.68,0-1.35,0-2,0-1.55,0-1.55-1.52-1.66a.57.57,0,0,0,0-.18c1.23-.25,2.38.28,3.57.39.29,0,.57.14.86.15,1.59.09,1.35.45,1.36,1.62q0,17.7,0,35.4c0,1.52,0,1.43-1.41,1.49Z"/><path class="cls-1" d="M138.06,182q0-9.12,0-18.24a1.34,1.34,0,0,1,.08-.56c.1-.22.31-.14.49,0a1.34,1.34,0,0,0,.35.76,10.06,10.06,0,0,1,1.26,1.73c.61.81.76,1.86,1.49,2.6.16.16.13.54.14.82,0,.48,0,1,0,1.43s.24.5.57.52c0,2.93,0,5.85,0,8.77,0,.24,0,.48,0,.72,0,.61-.15.78-.73.88C140.51,181.62,139.28,181.81,138.06,182Z"/><path class="cls-2" d="M150.31,153.7l.55,0a.54.54,0,0,1,0,.18c0,2.55,0,5.1,0,7.65,0,1.42,0,1.43-1.43,1.45l-.29,0a6,6,0,0,1-.31-2.27,1.77,1.77,0,0,0-.21-1.25,4,4,0,0,1-.61-2,15.45,15.45,0,0,0-.76-2.17c-.07-.29-.39-.41-.7-.43,0-.26,0-.53,0-.8a.64.64,0,0,0,.57-.26h2.27A.61.61,0,0,0,150.31,153.7Z"/><path class="cls-2" d="M150.87,114.68l-4,.23-.29-.2c0-.17,0-.34,0-.5a1.6,1.6,0,0,0,1.21-1.12,5.3,5.3,0,0,0,.62-1.59c.1-1.3.52-2.51.72-3.77a10.64,10.64,0,0,0,0-1.87,1.84,1.84,0,0,1,.57,0c1.25.34,1.22.23,1.22,1.51C150.86,109.78,150.87,112.23,150.87,114.68Z"/><path class="cls-1" d="M149.08,105.86a10.64,10.64,0,0,1,0,1.87c-.2,1.26-.62,2.47-.72,3.77a5.3,5.3,0,0,1-.62,1.59,1.6,1.6,0,0,1-1.21,1.12,5.24,5.24,0,0,1-.1-1.58c0-2.11,0-4.22,0-6.33,0-.72-.11-.79-.85-.82l-1.15-.06a3.13,3.13,0,0,1,2.11-.13C147.4,105.45,148.24,105.67,149.08,105.86Z"/><path class="cls-1" d="M146.56,154.76c.31,0,.63.14.7.43a15.45,15.45,0,0,1,.76,2.17,4,4,0,0,0,.61,2,1.77,1.77,0,0,1,.21,1.25,6,6,0,0,0,.31,2.27,10.85,10.85,0,0,1-2.67.25c0-2.52,0-5,0-7.56A7.89,7.89,0,0,1,146.56,154.76Z"/><path class="cls-2" d="M142.45,171c-.33,0-.55-.17-.57-.52s0-.95,0-1.43c0-.28,0-.66-.14-.82-.73-.74-.88-1.79-1.49-2.6a10.06,10.06,0,0,0-1.26-1.73,1.34,1.34,0,0,1-.35-.76,27.52,27.52,0,0,1,3.85.12C142.47,165.87,142.58,168.45,142.45,171Z"/><path class="cls-1" d="M150.86,153.85a.54.54,0,0,0,0-.18,20,20,0,0,1,4.09,0c-.42.34-.92.16-1.38.15A15.33,15.33,0,0,0,150.86,153.85Z"/><path class="cls-2" d="M153.47,114.52a.57.57,0,0,1,0,.18h-.13l-.11-.06A.19.19,0,0,1,153.47,114.52Z"/><path class="cls-2" d="M121.66,134.47a.53.53,0,0,1-.5.22c-2.12,0-4.24,0-6.36,0-.6,0-.7-.11-.7-.67,0-2.61,0-5.21,0-7.82,0-.49.12-.64.57-.65,2.22,0,4.44-.06,6.66-.08.36,0,.51.21.44.57-.72,0-1.45-.06-2.17,0-.52,0-.68.19-.71.71s0,.77,0,1.16c0,2,0,4,0,5.94,0,.47.16.63.6.64C120.21,134.48,120.94,134.47,121.66,134.47Z"/><path class="cls-5" d="M146.26,125.18c0,.67.07,1.33.07,2,0,1.86,0,3.73,0,5.59a3.79,3.79,0,0,1-.11,1.42l-3.79,0c0-2.46,0-4.92,0-7.39,0-.19,0-.38,0-.58,0-.74.23-1,1-1C144.33,125.17,145.3,125.18,146.26,125.18Z"/><path class="cls-2" d="M146.26,125.18c-1,0-1.93,0-2.89,0-.72,0-.91.25-1,1,0,.2,0,.39,0,.58,0,2.47,0,4.93,0,7.39a26.3,26.3,0,0,0-2.94.14h-.31a3.13,3.13,0,0,1,0-.43c.17-1,.35-2.06.53-3.09a1.88,1.88,0,0,0,0-.85,4.81,4.81,0,0,1-.17-.84,11.29,11.29,0,0,0-.83-3.88,1.32,1.32,0,0,1,0-.29l6.84-.21c.23,0,.48-.08.68.1A.26.26,0,0,1,146.26,125.18Z"/><path class="cls-5" d="M121.66,134.47c-.72,0-1.45,0-2.17,0-.44,0-.6-.17-.6-.64,0-2,0-4,0-5.94,0-.39,0-.78,0-1.16s.19-.7.71-.71c.72,0,1.45,0,2.17,0q0,4,0,8A1.59,1.59,0,0,1,121.66,134.47Z"/><path class="cls-1" d="M138.69,124.92a1.32,1.32,0,0,0,0,.29,11.29,11.29,0,0,1,.83,3.88,4.81,4.81,0,0,0,.17.84,1.88,1.88,0,0,1,0,.85c-.18,1-.36,2.06-.53,3.09a3.13,3.13,0,0,0,0,.43,4.19,4.19,0,0,1-.69.13.4.4,0,0,1-.41-.34,2.08,2.08,0,0,1,0-.43c0-2.64,0-5.27,0-7.91a1.76,1.76,0,0,1,.07-.56C138.2,124.9,138.44,124.89,138.69,124.92Z"/><path class="cls-1" d="M139.49,134.3a26.3,26.3,0,0,1,2.94-.14l3.79,0a.58.58,0,0,1-.48.25h-5.86A1.22,1.22,0,0,1,139.49,134.3Z"/><path class="cls-1" d="M150.31,153.7a.61.61,0,0,1-.92,0A1.45,1.45,0,0,1,150.31,153.7Z"/><path class="cls-1" d="M147.12,153.7a.64.64,0,0,1-.57.26C146.6,153.57,146.85,153.63,147.12,153.7Z"/><path class="cls-1" d="M146.57,114.71l.29.2C146.67,115,146.56,114.92,146.57,114.71Z"/></svg>