<svg id="Layer_1" data-name="Layer 1" xmlns="http://www.w3.org/2000/svg" viewBox="0 0 288 288"><defs><style>.cls-1{fill:#342481;}.cls-2{fill:#b7bfe1;}.cls-3{fill:#636ea4;}.cls-4{fill:#090e11;}.cls-5{fill:#c6cde8;}</style></defs><path class="cls-1" d="M125.48,219.57A.48.48,0,0,1,125,219c0-.47,0-.94,0-1.4l0-5.71c0-.2,0-.41,0-.61-.06-1.07-.06-1.07-1.11-1.09-2.09,0-4.18-.1-6.27-.19-3.78-.16-7.56-.07-11.34-.08l-.13-1.43c.1-2,.07-3.92,0-5.88,0-.68,0-1.35,0-2,.2,0,.41-.06.61-.06q8.64,0,17.28,0c.93,0,1,0,1,1,0,2.3,0,4.6,0,6.91,0,1.73,0,1.48,1.43,1.48,2.51,0,5,0,7.53,0h27.39c1.48,0,1.39.07,1.39-1.43,0-2.3,0-4.6,0-6.91,0-1,0-1.06,1-1.06q9,0,18,0v7.91l-.09,1.43L179,210c-5.05,0-10.09-.06-15.13.24-1,.06-1,0-1.05,1,0,2.22,0,4.44,0,6.65l0,1.44a6,6,0,0,1-1.94.23q-15.92,0-31.82,0c-.53,0-1.07,0-1.6.07A5.44,5.44,0,0,0,125.48,219.57Z"/><path class="cls-1" d="M162.78,68.42l.09,1.74v.69c-.18,2,0,4-.07,6,0,.54.25.72.75.71s1.07,0,1.6.06l.07,0c.31.28.7.18,1.05.18,3.45,0,6.89.08,10.33-.06,1.71,0,3.43-.08,5.13.09l.06,1.43a3.22,3.22,0,0,0,.12,1.63,46,46,0,0,0-.08,6.21l-.1.11c-.45,0-.9,0-1.36,0H164c-1.21,0-1.22,0-1.22-1.24,0-2.31,0-4.61,0-6.92,0-1.24,0-1.24-1.19-1.25H126.16c-.36,0-.73,0-1.1.07l-.11-.12c.14-2.53.08-5.06,0-7.6,0-.45.05-.9,0-1.35a.55.55,0,0,1,.49-.59c.29,0,.58.06.86.06h34.78c.37,0,.73,0,1.1-.07h0C162.39,68.44,162.6,68.38,162.78,68.42Z"/><path class="cls-1" d="M217.6,125c.48,0,1,.06,1.44.05a.47.47,0,0,1,.55.48,11.71,11.71,0,0,0,0,2.44c0,.53,0,1.06,0,1.6q0,16.49,0,33v0l-.23.24v0a5.7,5.7,0,0,0-1.7,0l-7.39,0-.12-.13c0-.16,0-.33,0-.49v-36c0-.12,0-.25,0-.37.07-.64-.22-.86-.85-.85-1.77,0-3.54,0-5.3,0-.91,0-1.81,0-2.72,0-.52,0-.75-.22-.73-.74,0-.29,0-.57,0-.86V109.87c0-1.27,0-2.54,0-3.82l.13-.12a13.89,13.89,0,0,0,1.9.3c2,0,4,0,5.95,0a6.53,6.53,0,0,1,1.65.13l0,.68a7.43,7.43,0,0,0,.07,2.4c0,.45-.07.9-.07,1.35,0,3.19.09,6.38,0,9.57a8,8,0,0,0,1,4.2c0,.44.32.49.68.49Z"/><path class="cls-1" d="M210.18,180.8c0,2.92-.05,5.83-.06,8.74,0,1.6,0,1.6-1.63,1.66l-1.35,0h-16c0-2.84,0-5.67,0-8.5,0-.87.06-.92.9-.94,1.2,0,2.39,0,3.58,0,1.4,0,2.79,0,4.19,0,.52,0,.76-.2.73-.73,0-.28,0-.57,0-.86q0-7.89,0-15.77c0-.25,0-.5,0-.74-.05-.61.16-.95.83-.9a8.23,8.23,0,0,0,.86,0l7.89,0,.12.12Q210.2,171.82,210.18,180.8Z"/><path class="cls-1" d="M68.46,162.77l-.14-.43c0-.41.08-.82.08-1.23V126c0-.25,0-.49-.05-.74.56-.45,1.23-.09,1.83-.26l7.62,0,.09.1c0,.16,0,.32,0,.49q0,18.6,0,37.21l-.1.1c-2.37-.09-4.75-.07-7.12,0Z"/><path class="cls-2" d="M68.35,125.24c0,.25.05.49.05.74v35.13c0,.41-.05.82-.08,1.23l-6.15-.05c-1.11,0-1.13,0-1.13-1.07V126.61c0-1.08,0-1.09,1.1-1.1,1.64,0,3.29,0,4.93,0C67.51,125.5,68,125.6,68.35,125.24Z"/><path class="cls-1" d="M87.21,88.46c.06-1.2.06-1.2,1.25-1.26l16.35,0c.45,0,.9,0,1.35-.06l.11.11c0,2.58,0,5.16,0,7.75,0,1.75.14,1.62-1.56,1.62-2.26,0-4.51,0-6.77,0-1.25,0-1.25,0-1.25,1.3,0,2.3,0,4.6,0,6.9,0,1.19,0,1.2-1.25,1.2H87.28c0-.82,0-1.64,0-2.46Z"/><path class="cls-1" d="M87.26,200.5l-.05-1.17,0-13.17c0-.7,0-1.39-.07-2.09v-2.23l.11-.12,8.14,0c1.21,0,1.22,0,1.22,1.24v6.91c0,1.25,0,1.25,1.3,1.24h6.9c1.18,0,1.2,0,1.2,1.15,0,2.75,0,5.5,0,8.26-.45,0-.9,0-1.35,0h-15Z"/><path class="cls-1" d="M199.32,87.19l.25,0c1,0,1,0,1.06,1.08,0,.12,0,.24.05.37a4.57,4.57,0,0,0,0,1.69,2.67,2.67,0,0,0-.08.48q0,7.55,0,15.09l-.12.12h-8.26c-1.08,0-1.1,0-1.1-1.11,0-2.42,0-4.85,0-7.27,0-1,0-1-1-1-2.42,0-4.85,0-7.27,0-1.08,0-1.09,0-1.1-1.11,0-2.75,0-5.5,0-8.25l.1-.11,1.93,0Z"/><path class="cls-2" d="M162.26,68.23c-.37,0-.73.07-1.1.07H126.38c-.28,0-.57,0-.86-.06,0-2.09,0-4.19,0-6.29,0-.87,0-.88.92-.92h34.3c1.65,0,1.56-.13,1.56,1.52Z"/><path class="cls-2" d="M219.6,127.93a11.71,11.71,0,0,1,0-2.44l6.16,0c1.19,0,1.2,0,1.2,1.24,0,5,0,10,0,15v18.86c0,.28,0,.57,0,.86,0,.57-.21.81-.8.8-1.88,0-3.77,0-5.66-.06q0-16.23,0-32.45A1.88,1.88,0,0,0,219.6,127.93Z"/><path class="cls-2" d="M125.48,219.57a5.44,5.44,0,0,1,1.93.05,1.91,1.91,0,0,0,2.14,1.41c10.89,0,21.79,0,32.68,0,0,1.72,0,3.45.06,5.17,0,.59-.24.82-.81.79-.24,0-.49,0-.73,0H127.1c-.12,0-.25,0-.37,0-1.21,0-1.21,0-1.22-1.22Z"/><path class="cls-2" d="M208.43,193.13c0,1.68,0,3.37,0,5.06,0,1.09,0,1.1-1.08,1.11h-6.91c-1.13,0-1.14,0-1.15,1.18,0,2.35,0,4.69,0,7,0,.88,0,.92-.89.92l-14.93,0c0-.21,0-.41.05-.62a32.54,32.54,0,0,1,.16-4.3c.18-.94.16-1,1.16-1l6.16,0c1.93,0,1.85.15,1.85-1.9s0-4.19,0-6.29c0-.88.05-.89.9-.93.29,0,.57,0,.86,0l12.33,0A2.78,2.78,0,0,0,208.43,193.13Z"/><path class="cls-1" d="M77.83,181.57l0-.74,0-15,0-2.93.1-.1h8c1.37,0,1.37,0,1.37,1.33,0,4.4,0,8.8,0,13.2,0,1.48,0,3,0,4.44l-.12.12c-2.23,0-4.46-.13-6.69,0A17,17,0,0,0,77.83,181.57Z"/><path class="cls-1" d="M106.14,79.3c0-.49.07-1,.1-1.46l18.71,0,.11.12,0,7.76c0,1.72.13,1.57-1.62,1.58l-17.14,0-.11-.11C106.15,84.54,106.15,81.92,106.14,79.3Z"/><path class="cls-1" d="M77.78,107c0-.24,0-.48.07-.73,3.11-.12,6.23-.08,9.35-.06,0,.21,0,.41,0,.62q0,8.56,0,17.14c0,.2,0,.41,0,.61a.46.46,0,0,1-.47.47h-1l-7.89,0-.09-.1q0-5.49,0-11C77.82,111.64,77.8,109.3,77.78,107Z"/><path class="cls-2" d="M87.2,106.17c-3.12,0-6.24-.06-9.35.06a.47.47,0,0,1,.39-.25c1.11-.15,1.11-.15,1.11-1.32V90.38c0-.28,0-.57,0-.86,0-.66.28-.84.89-.83,1.85,0,3.69,0,5.54,0a2.43,2.43,0,0,0,1.43-.23l0,15.13c0,.82,0,1.64,0,2.46A.16.16,0,0,0,87.2,106.17Z"/><path class="cls-2" d="M106.14,79.3c0,2.62,0,5.24,0,7.86-.45,0-.9.06-1.35.06l-16.35,0a2.13,2.13,0,0,0,.23-1.31v-5c0-1.55-.11-1.5,1.45-1.5,4.84,0,9.68,0,14.52,0C105.15,79.35,105.65,79.31,106.14,79.3Z"/><path class="cls-2" d="M77.78,107c0,2.34,0,4.68,0,7q0,5.48,0,11l-7.62,0q0-8,0-15.89v-.86c0-1.12.08-1.2,1.18-1.21,1.64,0,3.29,0,4.93,0C76.8,107,77.29,107,77.78,107Z"/><path class="cls-2" d="M125,77.79l-18.71,0c1-.46,1-.46,1-1.62,0-1.61,0-3.21,0-4.82,0-1.19,0-1.19,1.24-1.19l16.54,0C125,72.73,125.09,75.26,125,77.79Z"/><path class="cls-2" d="M199.32,87.19l-15.55,0a17.94,17.94,0,0,1-.21-3.19A3.15,3.15,0,0,0,181.92,81a3.22,3.22,0,0,1-.12-1.63l15.17,0h.86c1.46,0,1.46,0,1.47,1.42Q199.32,84,199.32,87.19Z"/><path class="cls-2" d="M77.83,181.57a17,17,0,0,1,2.66.29c.21.66.86,1,1.19,1.52A1.34,1.34,0,0,0,83,184c1.39,0,2.78,0,4.16,0,0,.7.07,1.39.07,2.09l0,13.17-6.4,0c-1.44,0-1.45,0-1.45-1.42q0-7.26,0-14.52c0-.29,0-.57,0-.86,0-.46-.18-.66-.65-.66C78.39,181.84,78,182,77.83,181.57Z"/><path class="cls-2" d="M181.74,77.9c-1.7-.17-3.42-.06-5.13-.09a1.59,1.59,0,0,0-.45-.15c-3.65,0-7.29,0-10.93,0l-.07,0c.35-3.79.34-3.83-2-6.57a2.26,2.26,0,0,0-.29-.23v-.69l15,0h1.84c1,0,1,0,1.05,1,0,1.6,0,3.2,0,4.8C180.75,76.86,180.79,77.6,181.74,77.9Z"/><path class="cls-2" d="M77.8,165.79l0,15-6.28,0c-1.29,0-1.3,0-1.3-1.27v-14.9c0-.29,0-.57,0-.86,0-.5-.16-.77-.7-.76-.35,0-.75.11-1-.23l2.18.06a21.73,21.73,0,0,0,2,2.3,1.71,1.71,0,0,0,1.39.59C75.28,165.71,76.54,165.76,77.8,165.79Z"/><path class="cls-2" d="M210.23,109.4a7.43,7.43,0,0,1-.07-2.4c2.09,0,4.19,0,6.28,0,1.14,0,1.15,0,1.15,1.17q0,8.39,0,16.77l-5.74.05c-.36,0-.66-.05-.68-.49.25-.22.21-.52.2-.8,0-4.25,0-8.51-.19-12.76A1.57,1.57,0,0,0,210.23,109.4Z"/><path class="cls-2" d="M200.66,90.36a4.57,4.57,0,0,1,0-1.69l6.54,0c1.21,0,1.22,0,1.22,1.22q0,7.64,0,15.29c0,.24,0,.49.05.73l-.09.1-4.54,0c-1.74,0-1.75,0-1.81-1.76,0-.41,0-.82,0-1.23,0-3.11-.08-6.23,0-9.34A3.69,3.69,0,0,0,200.66,90.36Z"/><path class="cls-2" d="M87.26,200.5l2.41.08c.34.36.72.69,1,1.07a2.21,2.21,0,0,0,2,.88c2.3-.05,4.61,0,6.91,0s4.35-.06,6.52.09c.06,2,.09,3.92,0,5.88l-10.08-.05H89.78c-1.07,0-1.08,0-1.08-1.11,0-1.76,0-3.53,0-5.29,0-1.07,0-1.08-1.06-1.26A.45.45,0,0,1,87.26,200.5Z"/><path class="cls-2" d="M125,211.9l0,5.71H108.2c-1,0-1,0-1-1,0-2.14,0-4.28,0-6.42.7-.07,1.46-.22,1.87.53a2,2,0,0,0,2.07.95C115.77,211.68,120.39,211.62,125,211.9Z"/><path class="cls-2" d="M217.54,165.7c0,1.72.05,3.45.05,5.17q0,4.5,0,9c0,.87,0,.91-.91.92-1.85,0-3.7,0-5.54,0a2.53,2.53,0,0,0,.22-1.43q0-6.15,0-12.29c0-1.32,0-1.33,1.38-1.33Z"/><path class="cls-2" d="M180.75,211.62c0,1.69,0,3.37,0,5.06,0,.88,0,.91-.91.91-2.67,0-5.34,0-8,0l-6.66,0c0-1.6,0-3.21,0-4.81,0-.63.22-.91.86-.88.95,0,1.88-.19,2.83-.18C172.86,211.69,176.8,211.65,180.75,211.62Z"/><path class="cls-3" d="M208.43,193.13a2.78,2.78,0,0,1-1.45.21l-12.33,0c-.29,0-.57,0-.86,0-.85,0-.89.05-.9.93,0,2.1,0,4.2,0,6.29s.08,1.9-1.85,1.9l-6.16,0c-1,0-1,0-1.16,1a32.54,32.54,0,0,0-.16,4.3c0,.21,0,.41-.05.62l-1.68.05v-7.91h0c2.83,0,5.65,0,8.48,0,.87,0,.89,0,.9-.9,0-2.83,0-5.65,0-8.48h16l1.35,0Z"/><path class="cls-3" d="M162.23,221c-10.89,0-21.79,0-32.68,0a1.91,1.91,0,0,1-2.14-1.41c.53,0,1.07-.07,1.6-.07q15.9,0,31.82,0a6,6,0,0,0,1.94-.23C162.24,219.77,162.39,220.44,162.23,221Z"/><path class="cls-3" d="M180.75,211.62c-3.95,0-7.89.07-11.84.06-.95,0-1.88.22-2.83.18-.64,0-.87.25-.86.88,0,1.6,0,3.21,0,4.81-.78.23-1.65-.19-2.39.33,0-2.21,0-4.43,0-6.65,0-1,0-1,1.05-1,5-.3,10.08-.22,15.13-.24l2.71-.06C180.81,210.34,180.81,210.34,180.75,211.62Z"/><path class="cls-3" d="M217.54,165.7l-4.79,0c-1.36,0-1.37,0-1.38,1.33q0,6.13,0,12.29a2.53,2.53,0,0,1-.22,1.43l-1,0q0-9,0-18h7.39a16.11,16.11,0,0,0,0,2.69A1.07,1.07,0,0,0,217.54,165.7Z"/><path class="cls-3" d="M219.6,127.93a1.88,1.88,0,0,1,.93,1.86q0,16.23,0,32.45c-.32.1-.69,0-1,.27q0-16.5,0-33C219.56,129,219.59,128.46,219.6,127.93Z"/><path class="cls-3" d="M125,211.9c-4.62-.28-9.24-.22-13.87-.21a2,2,0,0,1-2.07-.95c-.41-.75-1.17-.6-1.87-.53-.29-.16-.72.12-.94-.28,3.78,0,7.56-.08,11.34.08,2.09.09,4.18.14,6.27.19,1,0,1,0,1.11,1.09C125,211.49,125,211.7,125,211.9Z"/><path class="cls-2" d="M217.61,165.51a16.11,16.11,0,0,1,0-2.69,5.7,5.7,0,0,1,1.7,0s-.06.06-.1.07c-1.36.3-1.35.3-1.4,1.72C217.82,164.92,217.9,165.26,217.61,165.51Z"/><path class="cls-2" d="M210.12,106.32a6.53,6.53,0,0,0-1.65-.13.2.2,0,0,0-.06-.15l.09-.1,1.08,0C209.82,106,210.07,106,210.12,106.32Z"/><path class="cls-2" d="M162.78,68.42c-.18,0-.39,0-.5-.18C162.49,68.18,162.68,68.17,162.78,68.42Z"/><path class="cls-3" d="M219.31,162.77l.23-.24C219.57,162.71,219.5,162.79,219.31,162.77Z"/><path class="cls-4" d="M87.2,106.17a.16.16,0,0,1,.08-.12H95.4c1.24,0,1.25,0,1.25-1.2,0-2.3,0-4.6,0-6.9,0-1.29,0-1.3,1.25-1.3,2.26,0,4.51,0,6.77,0,1.7,0,1.55.13,1.56-1.62,0-2.59,0-5.17,0-7.75l17.14,0c1.75,0,1.62.14,1.62-1.58l0-7.76c.37,0,.74-.07,1.1-.07h35.43c1.19,0,1.19,0,1.19,1.25,0,2.31,0,4.61,0,6.92,0,1.22,0,1.24,1.22,1.24h16.41c.46,0,.91,0,1.36,0,0,2.75,0,5.5,0,8.25,0,1.09,0,1.11,1.1,1.11,2.42,0,4.85,0,7.27,0,1,0,1,0,1,1,0,2.42,0,4.85,0,7.27,0,1.09,0,1.11,1.1,1.11h8.26c0,1.28,0,2.55,0,3.82v13.56c0,.29,0,.57,0,.86,0,.52.21.75.73.74.91,0,1.81,0,2.72,0,1.76,0,3.53,0,5.3,0,.63,0,.92.21.85.85,0,.12,0,.25,0,.37v36c0,.16,0,.33,0,.49l-7.89,0a8.23,8.23,0,0,1-.86,0c-.67-.05-.88.29-.83.9,0,.24,0,.49,0,.74q0,7.89,0,15.77c0,.29,0,.58,0,.86,0,.53-.21.74-.73.73-1.4,0-2.79,0-4.19,0-1.19,0-2.38,0-3.58,0-.84,0-.9.07-.9.94,0,2.83,0,5.66,0,8.5h0c-2.83,0-5.67,0-8.51,0-.86,0-.91.06-.91.91,0,2.84,0,5.68,0,8.51h0q-9,0-18,0c-1,0-1,0-1,1.06,0,2.31,0,4.61,0,6.91,0,1.5.09,1.43-1.39,1.43H134c-2.51,0-5,0-7.53,0-1.45,0-1.43.25-1.43-1.48,0-2.31,0-4.61,0-6.91,0-1,0-1-1-1q-8.64,0-17.28,0c-.2,0-.41,0-.61.06a.35.35,0,0,0-.14-.06c0-2.76,0-5.51,0-8.26,0-1.13,0-1.14-1.2-1.15H98c-1.3,0-1.3,0-1.3-1.24V183c0-1.23,0-1.24-1.22-1.24l-8.14,0c0-1.48,0-3,0-4.44,0-4.4,0-8.8,0-13.2,0-1.33,0-1.33-1.37-1.33h-8q0-18.6,0-37.21c0-.17,0-.33,0-.49l7.89,0h1a.46.46,0,0,0,.47-.47c0-.2,0-.41,0-.61q0-8.58,0-17.14C87.24,106.58,87.21,106.38,87.2,106.17Zm28.38,28.3q0,8.82,0,17.64c0,1.48-.18,1.28,1.33,1.29,2.43,0,4.86,0,7.28,0,.66,0,.84.21.83.84,0,2.35,0,4.69,0,7,0,1.78-.28,1.55,1.56,1.56,2.35,0,4.69,0,7,0,.66,0,.89.22.83.85a8.19,8.19,0,0,0,0,.86v15.8c0,.33,0,.66,0,1a.41.41,0,0,0,.45.46h17a8.19,8.19,0,0,1,.86,0c.5,0,.66-.21.63-.67,0-.29,0-.58,0-.86,0-5.43,0-10.86,0-16.29,0-1.12,0-1.13,1.15-1.13h7.28c1,0,1,0,1-1,0-2.51,0-5,0-7.53,0-.86,0-.88.89-.88,2.43,0,4.86,0,7.28,0,1.48,0,1.31.13,1.31-1.33q0-17.65,0-35.3c0-.25,0-.49,0-.74a.42.42,0,0,0-.44-.47H171c-2.42,0-4.85,0-7.28,0-.87,0-.88,0-.89-.9,0-1.19,0-2.38,0-3.57,0-1.4,0-2.8,0-4.2,0-.66-.23-.91-.86-.83a2.28,2.28,0,0,1-.37,0H126.22c-1.2,0-1.2,0-1.2,1.2,0,.21,0,.42,0,.62,0,2.26,0,4.53,0,6.79,0,.86,0,.86-.9.88-.25,0-.49,0-.74,0h-6.91c-.85,0-.86,0-.88.89v18Z"/><path class="cls-3" d="M106,200.54a.35.35,0,0,1,.14.06c0,.67,0,1.34,0,2-2.17-.15-4.35-.07-6.52-.09s-4.61-.05-6.91,0a2.21,2.21,0,0,1-2-.88c-.3-.38-.68-.71-1-1.07h15C105.14,200.58,105.59,200.55,106,200.54Z"/><path class="cls-3" d="M162.88,70.85a2.26,2.26,0,0,1,.29.23c2.33,2.74,2.34,2.78,2,6.57-.53,0-1.06-.06-1.6-.06s-.76-.17-.75-.71C162.85,74.87,162.7,72.86,162.88,70.85Z"/><path class="cls-3" d="M181.92,81A3.15,3.15,0,0,1,183.56,84a17.94,17.94,0,0,0,.21,3.19l-1.93,0A46,46,0,0,1,181.92,81Z"/><path class="cls-3" d="M165.23,77.69c3.64,0,7.28,0,10.93,0a1.59,1.59,0,0,1,.45.15c-3.44.14-6.88,0-10.33.06C165.93,77.87,165.54,78,165.23,77.69Z"/><path class="cls-3" d="M208.41,106a.2.2,0,0,1,.06.15c-2,0-4,.06-5.95,0a13.89,13.89,0,0,1-1.9-.3q0-7.55,0-15.09a2.67,2.67,0,0,1,.08-.48,3.69,3.69,0,0,1,1.4,3.31c-.09,3.11,0,6.23,0,9.34,0,.41,0,.82,0,1.23.06,1.75.07,1.76,1.81,1.76Z"/><path class="cls-3" d="M210.23,109.4a1.57,1.57,0,0,1,1,1.56c.23,4.25.16,8.51.19,12.76,0,.28.05.58-.2.8a8,8,0,0,1-1-4.2c.11-3.19,0-6.38,0-9.57C210.16,110.3,210.21,109.85,210.23,109.4Z"/><path class="cls-3" d="M77.8,165.79c-1.26,0-2.52-.08-3.78-.07a1.71,1.71,0,0,1-1.39-.59,21.73,21.73,0,0,1-2-2.3c2.37,0,4.75-.06,7.12,0C77.77,163.84,77.79,164.81,77.8,165.79Z"/><path class="cls-3" d="M87.17,184.07c-1.38,0-2.77,0-4.16,0a1.34,1.34,0,0,1-1.33-.66c-.33-.55-1-.86-1.19-1.52,2.23-.15,4.46-.05,6.69,0C87.18,182.58,87.17,183.33,87.17,184.07Z"/><path class="cls-1" d="M181.78,200.56c0-2.83,0-5.67,0-8.51,0-.85.05-.91.91-.91,2.84,0,5.68,0,8.51,0,0,2.83,0,5.65,0,8.48,0,.87,0,.9-.9.9C187.43,200.57,184.61,200.56,181.78,200.56Z"/><path class="cls-5" d="M115.58,134.47v-18c0-.87,0-.89.88-.89h6.91c.25,0,.49,0,.74,0,.88,0,.9,0,.9-.88,0-2.26,0-4.53,0-6.79,0-.2,0-.41,0-.62,0-1.2,0-1.2,1.2-1.2h35.42a2.28,2.28,0,0,0,.37,0c.63-.08.88.17.86.83,0,1.4,0,2.8,0,4.2,0,1.19,0,2.38,0,3.57,0,.88,0,.9.89.9,2.43,0,4.86,0,7.28,0h.87a.42.42,0,0,1,.44.47c0,.25,0,.49,0,.74q0,17.65,0,35.3c0,1.46.17,1.32-1.31,1.33-2.42,0-4.85,0-7.28,0-.87,0-.89,0-.89.88,0,2.51,0,5,0,7.53,0,1,0,1-1,1h-7.28c-1.14,0-1.15,0-1.15,1.13,0,5.43,0,10.86,0,16.29,0,.28,0,.57,0,.86,0,.46-.13.71-.63.67a8.19,8.19,0,0,0-.86,0h-17a.41.41,0,0,1-.45-.46c0-.33,0-.66,0-1v-15.8a8.19,8.19,0,0,1,0-.86c.06-.63-.17-.86-.83-.85-2.35,0-4.69,0-7,0-1.84,0-1.55.22-1.56-1.56,0-2.35,0-4.69,0-7,0-.63-.17-.85-.83-.84-2.42,0-4.85,0-7.28,0-1.51,0-1.33.19-1.33-1.29Q115.57,143.29,115.58,134.47Zm42.55-9.36h0c-1.28,0-2.55,0-3.82,0-.86,0-.89,0-.89.91,0,2.55,0,5.1,0,7.64,0,.62.21.77.79.77q3.75,0,7.52,0c.6,0,.89-.13.88-.83a71.78,71.78,0,0,1,.14-7.76c.06-.63-.21-.75-.78-.73C160.68,125.14,159.4,125.11,158.13,125.11Zm-33,4.71h0c0,1.27,0,2.54,0,3.82,0,.61.21.79.78.78,2.63,0,5.26,0,7.89,0,.49,0,.64-.18.64-.65,0-2.63,0-5.26,0-7.89,0-.57-.2-.79-.8-.78q-3.89,0-7.77,0c-.62,0-.77.2-.75.78C125.16,127.18,125.14,128.5,125.14,129.82Z"/><path class="cls-4" d="M158.13,125.11c1.27,0,2.55,0,3.82,0,.57,0,.84.1.78.73a71.78,71.78,0,0,0-.14,7.76c0,.7-.28.83-.88.83q-3.77,0-7.52,0c-.58,0-.79-.15-.79-.77,0-2.54,0-5.09,0-7.64,0-.89,0-.9.89-.91,1.27,0,2.54,0,3.82,0Z"/><path class="cls-4" d="M125.14,129.82c0-1.32,0-2.64,0-3.95,0-.58.13-.79.75-.78q3.88,0,7.77,0c.6,0,.8.21.8.78,0,2.63,0,5.26,0,7.89,0,.47-.15.65-.64.65-2.63,0-5.26,0-7.89,0-.57,0-.8-.17-.78-.78,0-1.28,0-2.55,0-3.82Z"/></svg>